<svg id="Grupo_17" data-name="Grupo 17" xmlns="http://www.w3.org/2000/svg" xmlns:xlink="http://www.w3.org/1999/xlink" width="195.063" height="53.056" viewBox="0 0 195.063 53.056">
  <defs>
    <clipPath id="clip-path">
      <rect id="Retângulo_42" data-name="Retângulo 42" width="195.063" height="53.056" transform="translate(0 0)" fill="none"/>
    </clipPath>
  </defs>
  <g id="Grupo_16" data-name="Grupo 16" clip-path="url(#clip-path)">
    <path id="Caminho_190" data-name="Caminho 190" d="M92.967,42.617c.45,1.142,1.088,1.417,1.56,1.439v.45c-.615-.044-1.56-.065-2.417-.065-1.164,0-2.241.021-2.878.065v-.45c1.087-.044,1.593-.209,1.593-.835a3.1,3.1,0,0,0-.264-1.055l-1.384-3.691H83.749l-.922,2.384a5.307,5.307,0,0,0-.451,1.846c0,.977.67,1.318,1.955,1.351v.45c-.856-.044-1.8-.065-2.592-.065a16.582,16.582,0,0,0-1.681.065v-.45c.582-.132,1.252-.6,1.769-1.956l5.295-13.634h.363ZM86.5,31.312l-2.582,6.713h5.1Z" fill="#a30000"/>
    <path id="Caminho_191" data-name="Caminho 191" d="M104.086,34.377a1.314,1.314,0,0,1-1.286,1.418,1.138,1.138,0,0,1-1.2-1.165,1.459,1.459,0,0,1,.769-1.22.548.548,0,0,0-.473-.219c-1.889,0-3.131,2.56-3.131,4.23v4.768c0,1.461.9,1.845,2.384,1.845v.473c-.692-.023-2.066-.088-3.461-.088-1.032,0-2.142.065-2.658.088v-.473c1.241,0,1.714-.362,1.714-1.614V35.377c0-1.352-.407-1.988-1.714-1.988v-.473c.472.044.944.066,1.4.066a7.5,7.5,0,0,0,2.34-.307v2.812c.472-1.307,1.692-2.879,3.263-2.879a1.882,1.882,0,0,1,2.055,1.769" fill="#a30000"/>
    <path id="Caminho_192" data-name="Caminho 192" d="M115.556,38.728c0,4.043-2.319,6.1-5.021,6.1a3.993,3.993,0,0,1-2.967-1.319l-1.6,1.363-.374-.164a4.944,4.944,0,0,0,.154-1.3V29.587c0-1.351-.406-1.978-1.714-1.978v-.472c.473.044.944.066,1.4.066a7.163,7.163,0,0,0,2.339-.319v8.13a3.767,3.767,0,0,1,3.516-2.406c2.45,0,4.274,2.021,4.274,6.12m-2.187,0c0-3.648-.879-5.449-2.746-5.449-1.2,0-2.4.955-2.857,2.8v7.108a3.6,3.6,0,0,0,2.593,1.12c2,0,3.01-1.758,3.01-5.58" fill="#a30000"/>
    <path id="Caminho_193" data-name="Caminho 193" d="M120.994,42.419c0,1.252.472,1.615,1.713,1.615v.472c-.516-.022-1.692-.088-2.724-.088s-2.208.066-2.725.088v-.472c1.241,0,1.714-.363,1.714-1.615V35.376c0-1.351-.406-1.988-1.714-1.988v-.472c.472.043.945.066,1.4.066a7.5,7.5,0,0,0,2.34-.308Zm.274-13.689a1.439,1.439,0,1,1-1.439-1.439,1.451,1.451,0,0,1,1.439,1.439" fill="#a30000"/>
    <path id="Caminho_194" data-name="Caminho 194" d="M130.8,32.938v.45h-3.329V42.1c0,1.417.538,1.912,1.439,1.912s1.56-.648,2.033-2.406l.439.11c-.308,1.758-1.1,3.109-2.922,3.109a2.73,2.73,0,0,1-2.132-.747c-.659-.67-.879-1.549-.879-3.153V33.388H123.29v-.45h2.164V29.5a6.63,6.63,0,0,0,2.022-.32v3.758Z" fill="#a30000"/>
    <path id="Caminho_195" data-name="Caminho 195" d="M140.868,34.377a1.314,1.314,0,0,1-1.286,1.418,1.138,1.138,0,0,1-1.2-1.165,1.461,1.461,0,0,1,.769-1.22.548.548,0,0,0-.473-.219c-1.889,0-3.13,2.56-3.13,4.23v4.768c0,1.461.9,1.845,2.383,1.845v.473c-.692-.023-2.065-.088-3.461-.088-1.032,0-2.141.065-2.658.088v-.473c1.241,0,1.714-.362,1.714-1.614V35.377c0-1.352-.406-1.988-1.714-1.988v-.473c.472.044.945.066,1.4.066a7.5,7.5,0,0,0,2.34-.307v2.812c.472-1.307,1.691-2.879,3.262-2.879a1.882,1.882,0,0,1,2.055,1.769" fill="#a30000"/>
    <path id="Caminho_196" data-name="Caminho 196" d="M149.5,33.454c.714.725.9,1.56.9,3.153v6.252c0,.724.176,1.065.693,1.065a1.531,1.531,0,0,0,1.01-.472l.252.384a3.008,3.008,0,0,1-2.053.824c-1.572,0-1.934-.945-1.934-2a3.928,3.928,0,0,1-3.461,2c-1.5,0-2.856-.758-2.856-2.516,0-1.779,1.373-2.57,3.625-3.516,1.505-.626,2.692-1.01,2.692-1.911v-1.4c0-1.89-.923-2.264-2.088-2.264a2.818,2.818,0,0,0-2.229.8,1.387,1.387,0,0,1,1.054,1.373,1.176,1.176,0,0,1-1.318,1.219,1.235,1.235,0,0,1-1.22-1.4,2.006,2.006,0,0,1,1.055-1.6,5.793,5.793,0,0,1,3.153-.846,3.858,3.858,0,0,1,2.725.846m-1.132,4.186c-.242.362-.736.593-2.153,1.285-.99.473-2.187,1.121-2.187,2.857a1.733,1.733,0,0,0,1.8,1.977,2.99,2.99,0,0,0,2.538-1.7Z" fill="#a30000"/>
    <path id="Caminho_197" data-name="Caminho 197" d="M160.994,42.035c1.417,0,2.638.516,2.638,2.087,0,2-1.933,4.614-6.295,4.614-2.274,0-4.526-.691-4.526-2.065,0-1.1,1.393-2.1,2.822-2.746h-.076c-.791,0-2.253-.209-2.253-1.714,0-.967.671-1.879,2.813-2.846a3.174,3.174,0,0,1-2.088-3.208c0-2.472,1.791-3.549,4.153-3.549a6.118,6.118,0,0,1,1.593.2,4.879,4.879,0,0,1,.791-2,1.923,1.923,0,0,1,1.538-.747,1.1,1.1,0,0,1,1.186,1.176,1.051,1.051,0,0,1-1.076,1.077c-.813,0-1.054-.539-1.2-1.418a2.676,2.676,0,0,0-.606,1.1,6.2,6.2,0,0,0-.23.935,3.176,3.176,0,0,1,2.164,3.229c0,2.472-1.8,3.56-4.164,3.56a6.046,6.046,0,0,1-1.659-.209c-1.011.539-1.89,1.087-1.89,1.78,0,.494.308.747,1.077.747Zm1.088,3.142c0-.824-.34-1.252-1.714-1.252h-4.184a2.663,2.663,0,0,0-1.528,2.274c0,1.526,1.78,2.152,3.285,2.152,1.888,0,4.141-1.009,4.141-3.174m-5.943-9.02c0,2.406.79,3.153,2.043,3.153s2.056-.747,2.056-3.153S159.447,33,158.182,33s-2.043.747-2.043,3.153" fill="#a30000"/>
    <path id="Caminho_198" data-name="Caminho 198" d="M174.453,41.805a4.4,4.4,0,0,1-4.208,3.02c-3.262,0-5.174-2.384-5.174-5.833,0-3.955,2-6.384,5.086-6.384,2.637,0,4.208,1.55,4.208,4.945h-7.031a12.024,12.024,0,0,0-.077,1.439c0,3.087,1.714,4.889,3.439,4.889A3.42,3.42,0,0,0,174,41.629ZM167.3,37.124h4.9c.077-2.2-.627-4.087-2.131-4.087-1.34,0-2.527,1.252-2.769,4.087" fill="#a30000"/>
    <path id="Caminho_199" data-name="Caminho 199" d="M193.35,42.42c0,1.252.472,1.614,1.713,1.614v.473c-.517-.023-1.713-.088-2.7-.088s-2.044.065-2.517.088v-.473c1.077,0,1.484-.362,1.484-1.614v-6.5c0-1.4-.088-2.594-1.713-2.594-1.748,0-3.034,1.781-3.034,4.077V42.42c0,1.252.473,1.614,1.7,1.614v.473c-.517-.023-1.7-.088-2.692-.088s-2.055.065-2.527.088v-.473c1.088,0,1.483-.362,1.483-1.614v-6.5c0-1.4-.087-2.594-1.7-2.594-1.757,0-3.043,1.8-3.043,4.1v5c0,1.252.406,1.614,1.5,1.614v.473c-.472-.023-1.539-.088-2.528-.088s-2.187.065-2.7.088v-.473c1.241,0,1.715-.362,1.715-1.614V35.377c0-1.352-.409-1.988-1.715-1.988v-.473c.472.044.944.066,1.394.066a7.5,7.5,0,0,0,2.341-.307v2.647a3.889,3.889,0,0,1,3.692-2.714,3.093,3.093,0,0,1,2.339.847,3.033,3.033,0,0,1,.693,1.813,3.814,3.814,0,0,1,3.746-2.66,3.094,3.094,0,0,1,2.34.847,4.231,4.231,0,0,1,.737,2.955Z" fill="#a30000"/>
    <path id="Caminho_200" data-name="Caminho 200" d="M95.154,6.729a.735.735,0,0,0,.439.2c.308,0,.495-.418.572-1.341h.516c-.066,1.1-.088,2.56-.088,5.175h-.516c-.319-1.911-.5-2.516-1.132-3.329a4.891,4.891,0,0,0-3.977-1.758c-2.933,0-4.867,3.044-4.867,7.922,0,5.02,2.186,7.789,5.087,7.789a4.723,4.723,0,0,0,3.845-1.714c.659-.879.813-1.736,1.044-3.56h.516c0,2.725.022,4.263.088,5.406h-.516c-.077-.923-.231-1.33-.55-1.33a.938.938,0,0,0-.461.187,6.576,6.576,0,0,1-4.164,1.461c-4.274,0-7.13-3-7.13-8.151,0-5.033,2.966-8.416,7.152-8.416a6.28,6.28,0,0,1,4.142,1.461" fill="#a30000"/>
    <path id="Caminho_201" data-name="Caminho 201" d="M106.471,10.465c.714.725.9,1.56.9,3.153v6.251c0,.725.176,1.066.693,1.066a1.531,1.531,0,0,0,1.01-.472l.253.384a3.012,3.012,0,0,1-2.054.824c-1.572,0-1.934-.945-1.934-2a3.928,3.928,0,0,1-3.461,2c-1.5,0-2.856-.758-2.856-2.516,0-1.779,1.373-2.57,3.626-3.516,1.5-.626,2.691-1.01,2.691-1.911V12.333c0-1.89-.923-2.264-2.088-2.264a2.818,2.818,0,0,0-2.229.8,1.387,1.387,0,0,1,1.054,1.373,1.176,1.176,0,0,1-1.318,1.219,1.235,1.235,0,0,1-1.22-1.395,2.006,2.006,0,0,1,1.055-1.6,5.793,5.793,0,0,1,3.153-.846,3.858,3.858,0,0,1,2.725.846m-1.132,4.186c-.242.362-.736.593-2.153,1.285-.99.473-2.187,1.121-2.187,2.857a1.733,1.733,0,0,0,1.8,1.977,2.987,2.987,0,0,0,2.538-1.7Z" fill="#a30000"/>
    <path id="Caminho_202" data-name="Caminho 202" d="M119.95,10.465a4.024,4.024,0,0,1,.78,2.956V19.43c0,1.252.473,1.615,1.714,1.615v.472c-.516-.022-1.714-.088-2.7-.088s-2.043.066-2.516.088v-.472c1.078,0,1.484-.363,1.484-1.615v-6.5c0-1.395-.2-2.593-1.823-2.593-1.89,0-3.154,1.8-3.154,4.1v5c0,1.252.406,1.615,1.494,1.615v.472c-.472-.022-1.538-.088-2.527-.088s-2.186.066-2.7.088v-.472c1.241,0,1.714-.363,1.714-1.615V12.387c0-1.351-.407-1.988-1.714-1.988V9.926c.473.044.944.067,1.395.067a7.5,7.5,0,0,0,2.34-.308v2.648a3.9,3.9,0,0,1,3.834-2.714,3.067,3.067,0,0,1,2.384.846" fill="#a30000"/>
    <path id="Caminho_203" data-name="Caminho 203" d="M131.112,10.465c.715.725.9,1.56.9,3.153v6.251c0,.725.176,1.066.693,1.066a1.531,1.531,0,0,0,1.01-.472l.253.384a3.014,3.014,0,0,1-2.054.824c-1.572,0-1.934-.945-1.934-2a3.929,3.929,0,0,1-3.461,2c-1.5,0-2.856-.758-2.856-2.516,0-1.779,1.373-2.57,3.626-3.516,1.5-.626,2.691-1.01,2.691-1.911V12.333c0-1.89-.923-2.264-2.088-2.264a2.821,2.821,0,0,0-2.23.8,1.386,1.386,0,0,1,1.054,1.373,1.176,1.176,0,0,1-1.318,1.219,1.235,1.235,0,0,1-1.219-1.395,2,2,0,0,1,1.055-1.6,5.792,5.792,0,0,1,3.152-.846,3.855,3.855,0,0,1,2.725.846m-1.131,4.186c-.242.362-.736.593-2.153,1.285-.99.473-2.187,1.121-2.187,2.857a1.733,1.733,0,0,0,1.8,1.977,2.987,2.987,0,0,0,2.538-1.7Z" fill="#a30000"/>
    <path id="Caminho_204" data-name="Caminho 204" d="M138.221,19.429c0,1.252.473,1.615,1.714,1.615v.472c-.516-.022-1.692-.087-2.725-.087s-2.208.065-2.724.087v-.472c1.242,0,1.714-.363,1.714-1.615V6.575c0-1.352-.407-1.978-1.714-1.978V4.125c.472.044.945.066,1.4.066a7.165,7.165,0,0,0,2.34-.319Z" fill="#a30000"/>
    <path id="Caminho_205" data-name="Caminho 205" d="M30.97,1.523H56.087V.022H30.4Z" fill="#a30000"/>
    <path id="Caminho_206" data-name="Caminho 206" d="M28.671,0H27.476l-.009.022H0v1.5H26.886L15.857,30.01H0v1.513H15.271L10.015,45.1c-1.7,4.469-3.912,6.032-5.832,6.468v1.49a54.517,54.517,0,0,1,5.543-.218c2.608,0,5.723.073,8.549.218v-1.49c-4.239-.109-6.448-1.236-6.448-4.47a17.59,17.59,0,0,1,1.485-6.1L16.355,33.1l.543-1.489,8.513-22.2,7.7,20.6H19.25l-.569,1.513H33.672l.034.093L34.25,33.1l4.564,12.211a10.252,10.252,0,0,1,.869,3.488c0,2.072-1.666,2.617-5.252,2.762v1.49c2.1-.145,5.651-.218,9.491-.218,2.825,0,5.94.073,7.969.218v-1.49c-1.558-.073-3.659-.981-5.144-4.76l-5.9-15.283H56.087V30.01H40.261Z" fill="#a30000"/>
  </g>
</svg>
