<svg id="Grupo_13" data-name="Grupo 13" xmlns="http://www.w3.org/2000/svg" xmlns:xlink="http://www.w3.org/1999/xlink" width="150.576" height="178.665" viewBox="0 0 150.576 178.665">
  <defs>
    <clipPath id="clip-path">
      <rect id="Retângulo_37" data-name="Retângulo 37" width="150.576" height="155.196" fill="none"/>
    </clipPath>
    <clipPath id="clip-path-2">
      <path id="Caminho_44" data-name="Caminho 44" d="M204.515,42.436c.13,11.533,1.036,32.457,5.24,41.659a45.472,45.472,0,0,0,14.065,17.223,47.813,47.813,0,0,0,5.56,3.658,48.187,48.187,0,0,0,5.559-3.658A45.536,45.536,0,0,0,249.005,84.1c4.2-9.2,5.109-30.129,5.234-41.662Z" transform="translate(-204.515 -42.436)" fill="none"/>
    </clipPath>
    <clipPath id="clip-path-4">
      <rect id="Retângulo_39" data-name="Retângulo 39" width="150.576" height="178.665" fill="none"/>
    </clipPath>
  </defs>
  <g id="Grupo_6" data-name="Grupo 6" transform="translate(0 0)">
    <g id="Grupo_5" data-name="Grupo 5" clip-path="url(#clip-path)">
      <path id="Caminho_12" data-name="Caminho 12" d="M52.682,258.259l8.56,2.59a15.782,15.782,0,0,1-2.718,6.012,11.78,11.78,0,0,1-4.61,3.647,17.26,17.26,0,0,1-6.985,1.225,20.561,20.561,0,0,1-8.427-1.485,13.479,13.479,0,0,1-5.63-5.284,17.862,17.862,0,0,1-2.368-9.657q0-7.843,4.158-12.054,4.185-4.219,11.813-4.223,5.972,0,9.379,2.415a14.157,14.157,0,0,1,5.088,7.416l-8.625,1.92a7.3,7.3,0,0,0-.948-2.113,5.593,5.593,0,0,0-2-1.727,6.159,6.159,0,0,0-7.74,2.07c-.888,1.327-1.338,3.4-1.338,6.23q0,5.261,1.6,7.222a5.473,5.473,0,0,0,4.484,1.941,5.408,5.408,0,0,0,4.225-1.575,9.659,9.659,0,0,0,2.089-4.572" transform="translate(-18.271 -143.178)" fill="#171716"/>
      <rect id="Retângulo_36" data-name="Retângulo 36" width="9.787" height="31.604" transform="translate(48.1 96.393)" fill="#171716"/>
      <path id="Caminho_13" data-name="Caminho 13" d="M176.5,266.762H165.38l-1.526,5.218h-9.981l11.876-31.6H176.4l11.881,31.6H178.058Zm-2.046-6.83-3.493-11.363L167.5,259.932Z" transform="translate(-92.168 -143.983)" fill="#171716" fill-rule="evenodd"/>
      <path id="Caminho_14" data-name="Caminho 14" d="M246.222,261.322h8.216v3.75a8.881,8.881,0,0,1,2.436-3.339,5.17,5.17,0,0,1,3.125-.927,9.239,9.239,0,0,1,4.247,1.209l-2.714,6.25a6.924,6.924,0,0,0-2.463-.648,3.037,3.037,0,0,0-2.673,1.425q-1.353,2-1.355,7.5v7.673h-8.82Z" transform="translate(-147.485 -156.221)" fill="#171716"/>
      <path id="Caminho_15" data-name="Caminho 15" d="M294.984,240.376h8.864v10.952a8.7,8.7,0,0,1,2.971-2.066,9.615,9.615,0,0,1,3.709-.7,8.94,8.94,0,0,1,6.918,3.02q2.745,2.994,2.737,8.625a16.481,16.481,0,0,1-1.244,6.616,9.357,9.357,0,0,1-3.477,4.264,8.885,8.885,0,0,1-4.891,1.407,9.058,9.058,0,0,1-4.223-.994,11.037,11.037,0,0,1-3.154-2.911v3.386h-8.209Zm8.8,20.09a6.693,6.693,0,0,0,1.1,4.289,3.537,3.537,0,0,0,2.823,1.316,3.264,3.264,0,0,0,2.63-1.291,7.011,7.011,0,0,0,1.075-4.4,6.192,6.192,0,0,0-1.056-3.991,3.152,3.152,0,0,0-2.521-1.27,3.676,3.676,0,0,0-2.931,1.34,6.026,6.026,0,0,0-1.121,4" transform="translate(-176.693 -143.983)" fill="#171716" fill-rule="evenodd"/>
      <path id="Caminho_16" data-name="Caminho 16" d="M38.09,351.893a5.609,5.609,0,0,1-2.849.765c-2.278,0-3.273-1.77-3.273-3.919,0-2.934,1.922-6.246,4.7-6.246A2.367,2.367,0,0,1,39.193,345c0,2.549-2.546,3.213-5.73,3.152a4.545,4.545,0,0,0,.176,1.851,1.926,1.926,0,0,0,1.922,1.3,4.4,4.4,0,0,0,2.313-.662Zm-1.638-8.1c-1.406,0-2.455,1.548-2.83,3.076,2.331.037,4.146-.325,4.146-1.85a1.182,1.182,0,0,0-1.316-1.226" transform="translate(-19.149 -205.15)" fill="#171716"/>
      <path id="Caminho_17" data-name="Caminho 17" d="M54.407,343.036l.747,5.545c.125,1.1.248,1.848.267,2.391h.053c.2-.523.427-1.164.926-2.27l2.615-5.667h1.619l-4.785,9.725H54.407l-1.495-9.725Z" transform="translate(-31.694 -205.476)" fill="#171716"/>
      <path id="Caminho_18" data-name="Caminho 18" d="M80.139,346.526c0,3.012-1.886,6.129-4.785,6.129-2.153,0-3.364-1.811-3.364-4,0-3.213,1.975-6.168,4.769-6.168,2.333,0,3.381,1.989,3.381,4.038M73.52,348.6c0,1.588.784,2.73,2.027,2.73,1.746,0,3.061-2.529,3.061-4.8,0-1.125-.461-2.712-2.011-2.712-1.85,0-3.078,2.552-3.078,4.782" transform="translate(-43.121 -205.147)" fill="#171716"/>
      <path id="Caminho_19" data-name="Caminho 19" d="M94.886,345.984l2.4-14.262h1.477l-2.4,14.262Z" transform="translate(-56.836 -198.699)" fill="#171716"/>
      <path id="Caminho_20" data-name="Caminho 20" d="M107.561,343.036l.747,5.545c.123,1.1.247,1.848.267,2.391h.052c.2-.523.427-1.164.926-2.27l2.615-5.667h1.619L109,352.761h-1.441l-1.5-9.725Z" transform="translate(-63.532 -205.476)" fill="#171716"/>
      <path id="Caminho_21" data-name="Caminho 21" d="M125.189,347.061l1.655-9.723H128.3l-1.635,9.723Zm1.922-12.414a1.061,1.061,0,0,1,.96-1.127.936.936,0,0,1,.89,1.045,1.043,1.043,0,0,1-1.015,1.126c-.516,0-.836-.444-.836-1.044" transform="translate(-74.987 -199.776)" fill="#171716"/>
      <path id="Caminho_22" data-name="Caminho 22" d="M135.4,352.436l1.139-6.892c.2-1.086.32-2.029.408-2.833h1.318l-.215,1.908h.036a3.737,3.737,0,0,1,3.185-2.126c1.034,0,2.19.662,2.19,2.691a10.361,10.361,0,0,1-.159,1.566l-.962,5.685h-1.458l.942-5.625a9.1,9.1,0,0,0,.108-1.246c0-.962-.34-1.688-1.352-1.688-1.051,0-2.546,1.429-2.937,3.838l-.783,4.72Z" transform="translate(-81.101 -205.15)" fill="#171716"/>
      <path id="Caminho_23" data-name="Caminho 23" d="M158.654,354.645a4.049,4.049,0,0,0,2.278.642c1.458,0,2.6-.822,3.1-3.454l.285-1.468h-.035a3.444,3.444,0,0,1-2.99,2.07c-1.744,0-2.634-1.647-2.634-3.376,0-3.293,2.135-6.567,5.463-6.567a6.449,6.449,0,0,1,2.775.68l-1.334,8.037c-.337,2.068-.836,3.474-1.727,4.359a4.314,4.314,0,0,1-3.006,1.065,4.6,4.6,0,0,1-2.581-.683Zm6.619-10.487a3.4,3.4,0,0,0-1.423-.32c-2.154,0-3.649,2.55-3.649,4.942-.016,1.086.339,2.328,1.655,2.328,1.263,0,2.545-1.808,2.866-3.693Z" transform="translate(-94.787 -205.15)" fill="#171716"/>
      <path id="Caminho_24" data-name="Caminho 24" d="M194.948,337.233l-.391,2.329h2.062l-.228,1.305h-2.066l-.783,4.721a8.1,8.1,0,0,0-.177,1.546c0,.583.249.944.82.944a2.347,2.347,0,0,0,.693-.08l-.072,1.306a3.055,3.055,0,0,1-1.138.181,1.705,1.705,0,0,1-1.816-1.889,10.2,10.2,0,0,1,.2-1.805l.837-4.922h-1.227l.214-1.305H193.1l.3-1.807Z" transform="translate(-114.801 -202)" fill="#171716"/>
      <path id="Caminho_25" data-name="Caminho 25" d="M212.542,346.526c0,3.012-1.887,6.129-4.786,6.129-2.155,0-3.363-1.811-3.363-4,0-3.213,1.973-6.168,4.768-6.168,2.334,0,3.382,1.989,3.382,4.038m-6.62,2.07c0,1.588.783,2.73,2.03,2.73,1.743,0,3.059-2.529,3.059-4.8,0-1.125-.46-2.712-2.01-2.712-1.851,0-3.078,2.552-3.078,4.782" transform="translate(-122.429 -205.147)" fill="#171716"/>
      <path id="Caminho_26" data-name="Caminho 26" d="M235.363,352.436l1.051-6.269c.194-1.264.337-2.552.428-3.456h1.3c-.07.683-.14,1.369-.23,2.112h.053c.553-1.326,1.476-2.329,2.633-2.329a2.8,2.8,0,0,1,.427.037l-.286,1.649a2.121,2.121,0,0,0-.409-.041c-1.278,0-2.419,1.75-2.794,4.019l-.711,4.278Z" transform="translate(-140.98 -205.15)" fill="#171716"/>
      <path id="Caminho_27" data-name="Caminho 27" d="M255.5,351.893a5.608,5.608,0,0,1-2.848.765c-2.278,0-3.275-1.77-3.275-3.919,0-2.934,1.922-6.246,4.7-6.246a2.368,2.368,0,0,1,2.527,2.51c0,2.549-2.546,3.213-5.732,3.152a4.563,4.563,0,0,0,.179,1.851,1.923,1.923,0,0,0,1.922,1.3,4.407,4.407,0,0,0,2.313-.662Zm-1.639-8.1c-1.406,0-2.455,1.548-2.829,3.076,2.332.037,4.147-.325,4.147-1.85a1.184,1.184,0,0,0-1.318-1.226" transform="translate(-149.376 -205.15)" fill="#171716"/>
      <path id="Caminho_28" data-name="Caminho 28" d="M268.844,350.741a3.543,3.543,0,0,0,1.85.6,1.566,1.566,0,0,0,1.639-1.587c0-.763-.3-1.225-1.211-1.789a2.923,2.923,0,0,1-1.55-2.49,2.98,2.98,0,0,1,3.117-3,3.244,3.244,0,0,1,1.795.485l-.409,1.266a2.81,2.81,0,0,0-1.495-.444,1.451,1.451,0,0,0-1.53,1.468c0,.7.411,1.143,1.195,1.626a3.024,3.024,0,0,1,1.6,2.551,3.064,3.064,0,0,1-3.273,3.2,3.7,3.7,0,0,1-2.155-.664Z" transform="translate(-160.779 -205.144)" fill="#171716"/>
      <path id="Caminho_29" data-name="Caminho 29" d="M294.272,346.526c0,3.012-1.889,6.129-4.788,6.129-2.153,0-3.363-1.811-3.363-4,0-3.213,1.975-6.168,4.769-6.168,2.331,0,3.382,1.989,3.382,4.038m-6.62,2.07c0,1.588.781,2.73,2.029,2.73,1.741,0,3.057-2.529,3.057-4.8,0-1.125-.461-2.712-2.007-2.712-1.851,0-3.08,2.552-3.08,4.782" transform="translate(-171.384 -205.147)" fill="#171716"/>
      <path id="Caminho_30" data-name="Caminho 30" d="M309.017,345.984l2.4-14.262h1.474l-2.4,14.262Z" transform="translate(-185.098 -198.699)" fill="#171716"/>
      <path id="Caminho_31" data-name="Caminho 31" d="M321.693,343.036l.749,5.545c.123,1.1.247,1.848.267,2.391h.052c.195-.523.428-1.164.925-2.27l2.617-5.667h1.618l-4.788,9.725h-1.44l-1.495-9.725Z" transform="translate(-191.795 -205.476)" fill="#171716"/>
      <path id="Caminho_32" data-name="Caminho 32" d="M345.309,351.893a5.6,5.6,0,0,1-2.848.765c-2.278,0-3.273-1.77-3.273-3.919,0-2.934,1.922-6.246,4.7-6.246a2.366,2.366,0,0,1,2.525,2.51c0,2.549-2.546,3.213-5.73,3.152a4.529,4.529,0,0,0,.179,1.851,1.922,1.922,0,0,0,1.922,1.3,4.4,4.4,0,0,0,2.311-.662Zm-1.637-8.1c-1.406,0-2.455,1.548-2.829,3.076,2.329.037,4.147-.325,4.147-1.85a1.183,1.183,0,0,0-1.318-1.226" transform="translate(-203.17 -205.15)" fill="#171716"/>
      <path id="Caminho_33" data-name="Caminho 33" d="M245.356,77.4A51.752,51.752,0,0,1,229.39,96.993a55.124,55.124,0,0,1-6.863,4.453c-1.145.621-2,1.024-2.446,1.229-.448-.205-1.305-.608-2.447-1.229a54.916,54.916,0,0,1-6.863-4.453A51.694,51.694,0,0,1,194.8,77.4c-6.011-13.174-5.874-44.7-5.793-50.449H251.15c.079,5.747.216,37.274-5.793,50.449" transform="translate(-113.203 -16.143)" fill="#fff"/>
      <path id="Caminho_34" data-name="Caminho 34" d="M228.28,104.722a49.324,49.324,0,0,1-6-3.912,46.273,46.273,0,0,1-14.291-17.5c-4.371-9.577-5.212-31.4-5.309-42.695h51.2c-.1,11.3-.938,33.118-5.308,42.695a46.233,46.233,0,0,1-14.291,17.5,49.266,49.266,0,0,1-6,3.912" transform="translate(-121.403 -24.329)" fill="#171716"/>
      <path id="Caminho_35" data-name="Caminho 35" d="M254.244,42.436c-.128,11.533-1.036,32.458-5.237,41.662a45.517,45.517,0,0,1-14.065,17.22,49.328,49.328,0,0,1-5.559,3.66,49.218,49.218,0,0,1-5.561-3.66A45.518,45.518,0,0,1,209.757,84.1c-4.2-9.2-5.107-30.129-5.236-41.662Z" transform="translate(-122.506 -25.419)" fill="#fff"/>
    </g>
  </g>
  <g id="Grupo_8" data-name="Grupo 8" transform="translate(82.013 17.017)">
    <g id="Grupo_7" data-name="Grupo 7" clip-path="url(#clip-path-2)">
      <path id="Caminho_36" data-name="Caminho 36" d="M286.941,39.5l1.834,4.682h-3.988l.91,3.289h-3.651l.913,3.654h-3.651l.912,3.652h-3.655l.915,3.655-4.566-.55v2.375h-6.394v2.256l4.2,5.6,3.107-3.289,2.738,3.652,1.826-3.652,2.743,3.289,2.74-3.289,1.823,3.652,2.745-3.652,1.823,3.652,1.826-9.132.915-20.093-.915-.914h-4.566Z" transform="translate(-241.655 -39.979)" fill="#d10020"/>
      <path id="Caminho_37" data-name="Caminho 37" d="M286.941,39.5l1.834,4.682h-3.988l.91,3.289h-3.651l.913,3.654h-3.651l.912,3.652h-3.655l.915,3.655-4.566-.55v2.375h-6.394v2.256l4.2,5.6,3.107-3.289,2.738,3.652,1.826-3.652,2.743,3.289,2.74-3.289,1.823,3.652,2.745-3.652,1.823,3.652,1.826-9.132.915-20.093-.915-.914h-4.566Z" transform="translate(-241.655 -39.979)" fill="none" stroke="#171716" stroke-width="0.325"/>
      <path id="Caminho_38" data-name="Caminho 38" d="M201.379,41.075h4.071l-1.332,3.652h3.655l-.917,3.656,4.568-.914L209.6,51.121l5.068-.914-1.418,4.567,3.655-.914s-.806,4.775-.915,4.568,4.293-.64,4.293-.64l-1.324,3.379h7.992V38.59l-26.487-.256v2.741Z" transform="translate(-202.089 -39.979)" fill="#d10020" fill-rule="evenodd"/>
      <path id="Caminho_39" data-name="Caminho 39" d="M201.379,41.075h4.071l-1.332,3.652h3.655l-.917,3.656,4.568-.914L209.6,51.121l5.068-.914-1.418,4.567,3.655-.914s-.806,4.775-.915,4.568,4.293-.64,4.293-.64l-1.324,3.379h7.992V38.59l-26.487-.256v2.741Z" transform="translate(-202.089 -39.979)" fill="none" stroke="#171716" stroke-width="0.325"/>
      <path id="Caminho_40" data-name="Caminho 40" d="M229.68,98.468l-4.984,5.715-2.325-3.342-1.823,2.741-2.741-2.741-2.743,2.741-1.826-1.828-1.826,2.74-2.743-2.74-3.654,3.652,3.654,13.7,5.483,1.827v-4.569l9.133-3.652-.915-.914H224.2l-.912-4.566,3.653.914,2.741.095Z" transform="translate(-204.815 -75.998)" fill="#d10020"/>
      <path id="Caminho_41" data-name="Caminho 41" d="M229.68,98.468l-4.984,5.715-2.325-3.342-1.823,2.741-2.741-2.741-2.743,2.741-1.826-1.828-1.826,2.74-2.743-2.74-3.654,3.652,3.654,13.7,5.483,1.827v-4.569l9.133-3.652-.915-.914H224.2l-.912-4.566,3.653.914,2.741.095Z" transform="translate(-204.815 -75.998)" fill="none" stroke="#171716" stroke-width="0.325"/>
      <path id="Caminho_42" data-name="Caminho 42" d="M266.52,115.03l3.059.5-.321,3.182,2.741-.639-.273,3.652a28.011,28.011,0,0,1,3.014.913c-.191.065,8.22,1.828,8.22,1.828l-1.826,6.393,6.392-1.827-13.7,18.264-7.307,2.743Z" transform="translate(-241.655 -85.919)" fill="#d10020"/>
      <path id="Caminho_43" data-name="Caminho 43" d="M266.52,115.03l3.059.5-.321,3.182,2.741-.639-.273,3.652a28.011,28.011,0,0,1,3.014.913c-.191.065,8.22,1.828,8.22,1.828l-1.826,6.393,6.392-1.827-13.7,18.264-7.307,2.743Z" transform="translate(-241.655 -85.919)" fill="none" stroke="#171716" stroke-width="0.325"/>
    </g>
  </g>
  <g id="Grupo_10" data-name="Grupo 10" transform="translate(0 0)">
    <g id="Grupo_9" data-name="Grupo 9" clip-path="url(#clip-path)">
      <path id="Caminho_45" data-name="Caminho 45" d="M250.472,27.726c.074,7.333-.023,36.895-5.732,49.416A51.025,51.025,0,0,1,229,96.455a53.919,53.919,0,0,1-6.772,4.393c-.9.493-1.622.845-2.1,1.067-.473-.222-1.192-.574-2.1-1.067a53.977,53.977,0,0,1-6.772-4.393,51.038,51.038,0,0,1-15.743-19.314c-5.709-12.521-5.805-42.083-5.736-49.416Zm-5.1,49.706a51.689,51.689,0,0,1-15.956,19.583,54.7,54.7,0,0,1-6.861,4.449c-1.08.588-1.9.978-2.369,1.194l-.109.006c-.483-.222-1.3-.613-2.383-1.2a54.81,54.81,0,0,1-6.862-4.449,51.722,51.722,0,0,1-15.959-19.583c-3.277-7.186-4.741-19.947-5.366-31.061-.5-8.813-.458-16.455-.425-19.2l0-.148h62.079l0,.148c.035,2.741.072,10.383-.425,19.2-.625,11.114-2.086,23.875-5.368,31.061" transform="translate(-113.249 -16.189)" fill="#171716" fill-rule="evenodd"/>
      <path id="Caminho_46" data-name="Caminho 46" d="M263.936,203.564c.066.724.674,1.7,1.416,1.7a1.183,1.183,0,0,0,.241-.02,1.534,1.534,0,0,1-.888.279,1.57,1.57,0,0,1-.3-.027,2.287,2.287,0,0,1-.482,1.308,2.336,2.336,0,0,1-.477-1.308,1.564,1.564,0,0,1-.3.027,1.548,1.548,0,0,1-.888-.279,1.17,1.17,0,0,0,.242.02c.742,0,1.351-.974,1.417-1.7Z" transform="translate(-157.094 -121.933)" fill="#171716"/>
      <path id="Caminho_47" data-name="Caminho 47" d="M265.726,202.09a.277.277,0,1,1,.276.277.279.279,0,0,1-.276-.277" transform="translate(-159.167 -120.883)" fill="#171716"/>
      <path id="Caminho_48" data-name="Caminho 48" d="M264.341,203.475a.278.278,0,1,1,.28.275.278.278,0,0,1-.28-.275" transform="translate(-158.338 -121.713)" fill="#171716"/>
      <path id="Caminho_49" data-name="Caminho 49" d="M267.109,203.475a.277.277,0,1,1,.275.275.276.276,0,0,1-.275-.275" transform="translate(-159.996 -121.713)" fill="#171716"/>
      <path id="Caminho_50" data-name="Caminho 50" d="M237.469,185.969c.066.726.676,1.7,1.417,1.7a1.33,1.33,0,0,0,.243-.022,1.542,1.542,0,0,1-.888.281,1.414,1.414,0,0,1-.3-.031,2.286,2.286,0,0,1-.48,1.308,2.3,2.3,0,0,1-.478-1.308,1.432,1.432,0,0,1-.3.031,1.536,1.536,0,0,1-.888-.281,1.333,1.333,0,0,0,.24.022c.742,0,1.351-.974,1.417-1.7Z" transform="translate(-141.242 -111.394)" fill="#171716"/>
      <path id="Caminho_51" data-name="Caminho 51" d="M239.255,184.5a.278.278,0,0,1,.555,0,.278.278,0,0,1-.555,0" transform="translate(-143.311 -110.347)" fill="#171716"/>
      <path id="Caminho_52" data-name="Caminho 52" d="M237.876,185.879a.275.275,0,1,1,.275.278.276.276,0,0,1-.275-.278" transform="translate(-142.485 -111.173)" fill="#171716"/>
      <path id="Caminho_53" data-name="Caminho 53" d="M240.64,185.879a.277.277,0,1,1,.275.278.28.28,0,0,1-.275-.278" transform="translate(-144.141 -111.173)" fill="#171716"/>
      <path id="Caminho_54" data-name="Caminho 54" d="M195.778,73.289c.066.725.674,1.7,1.416,1.7a1.5,1.5,0,0,0,.241-.019,1.525,1.525,0,0,1-.886.28,1.553,1.553,0,0,1-.3-.03,2.293,2.293,0,0,1-.479,1.308,2.328,2.328,0,0,1-.479-1.308,1.49,1.49,0,0,1-.3.03,1.539,1.539,0,0,1-.888-.28,1.5,1.5,0,0,0,.243.019c.74,0,1.351-.975,1.417-1.7Z" transform="translate(-116.268 -43.9)" fill="#171716"/>
      <path id="Caminho_55" data-name="Caminho 55" d="M197.567,71.82a.278.278,0,1,1,.275.279.276.276,0,0,1-.275-.279" transform="translate(-118.341 -42.855)" fill="#171716"/>
      <path id="Caminho_56" data-name="Caminho 56" d="M196.179,73.2a.279.279,0,1,1,.282.277.279.279,0,0,1-.282-.277" transform="translate(-117.509 -43.682)" fill="#171716"/>
      <path id="Caminho_57" data-name="Caminho 57" d="M198.952,73.2a.277.277,0,1,1,.275.277.275.275,0,0,1-.275-.277" transform="translate(-119.17 -43.682)" fill="#171716"/>
      <path id="Caminho_58" data-name="Caminho 58" d="M200.649,117.955c.066.727.675,1.7,1.419,1.7a1.569,1.569,0,0,0,.241-.019,1.54,1.54,0,0,1-.888.28,1.51,1.51,0,0,1-.3-.03,2.3,2.3,0,0,1-.481,1.307,2.322,2.322,0,0,1-.475-1.307,1.516,1.516,0,0,1-.3.03,1.546,1.546,0,0,1-.888-.28,1.537,1.537,0,0,0,.243.019c.744,0,1.353-.973,1.417-1.7Z" transform="translate(-119.186 -70.654)" fill="#171716"/>
      <path id="Caminho_59" data-name="Caminho 59" d="M202.439,116.486a.278.278,0,1,1,.275.275.276.276,0,0,1-.275-.275" transform="translate(-121.259 -69.608)" fill="#171716"/>
      <path id="Caminho_60" data-name="Caminho 60" d="M201.054,117.867a.278.278,0,1,1,.28.275.281.281,0,0,1-.28-.275" transform="translate(-120.429 -70.433)" fill="#171716"/>
      <path id="Caminho_61" data-name="Caminho 61" d="M203.823,117.867a.278.278,0,1,1,.277.275.279.279,0,0,1-.277-.275" transform="translate(-122.088 -70.433)" fill="#171716"/>
      <path id="Caminho_62" data-name="Caminho 62" d="M194.625,31.559c.066.725.674,1.7,1.418,1.7a1.429,1.429,0,0,0,.239-.019,1.539,1.539,0,0,1-.886.281,1.517,1.517,0,0,1-.3-.03,2.3,2.3,0,0,1-.481,1.307,2.325,2.325,0,0,1-.475-1.307,1.518,1.518,0,0,1-.3.03,1.561,1.561,0,0,1-.89-.281,1.442,1.442,0,0,0,.242.019c.742,0,1.353-.974,1.417-1.7Z" transform="translate(-115.578 -18.904)" fill="#171716"/>
      <path id="Caminho_63" data-name="Caminho 63" d="M196.414,30.089a.277.277,0,1,1,.275.277.281.281,0,0,1-.275-.277" transform="translate(-117.65 -17.857)" fill="#171716"/>
      <path id="Caminho_64" data-name="Caminho 64" d="M195.03,31.473a.278.278,0,0,1,.555,0,.278.278,0,1,1-.555,0" transform="translate(-116.821 -18.688)" fill="#171716"/>
      <path id="Caminho_65" data-name="Caminho 65" d="M197.8,31.473a.278.278,0,0,1,.555,0,.278.278,0,1,1-.555,0" transform="translate(-118.479 -18.688)" fill="#171716"/>
      <path id="Caminho_66" data-name="Caminho 66" d="M263.936,31.559c.066.725.674,1.7,1.416,1.7a1.462,1.462,0,0,0,.241-.019,1.547,1.547,0,0,1-.888.281,1.506,1.506,0,0,1-.3-.03,2.29,2.29,0,0,1-.482,1.307,2.338,2.338,0,0,1-.477-1.307,1.5,1.5,0,0,1-.3.03,1.561,1.561,0,0,1-.888-.281,1.442,1.442,0,0,0,.242.019c.742,0,1.351-.974,1.417-1.7Z" transform="translate(-157.094 -18.904)" fill="#171716"/>
      <path id="Caminho_67" data-name="Caminho 67" d="M265.726,30.089a.277.277,0,1,1,.276.277.279.279,0,0,1-.276-.277" transform="translate(-159.167 -17.857)" fill="#171716"/>
      <path id="Caminho_68" data-name="Caminho 68" d="M264.341,31.473a.278.278,0,1,1,.28.279.277.277,0,0,1-.28-.279" transform="translate(-158.338 -18.688)" fill="#171716"/>
      <path id="Caminho_69" data-name="Caminho 69" d="M267.109,31.473a.277.277,0,1,1,.275.279.275.275,0,0,1-.275-.279" transform="translate(-159.996 -18.688)" fill="#171716"/>
      <path id="Caminho_70" data-name="Caminho 70" d="M228.943,31.559c.066.725.676,1.7,1.416,1.7a1.464,1.464,0,0,0,.243-.019,1.563,1.563,0,0,1-.89.281,1.475,1.475,0,0,1-.3-.03,2.317,2.317,0,0,1-.479,1.307,2.3,2.3,0,0,1-.481-1.307,1.518,1.518,0,0,1-.3.03,1.551,1.551,0,0,1-.887-.281,1.44,1.44,0,0,0,.241.019c.742,0,1.353-.974,1.419-1.7Z" transform="translate(-136.134 -18.904)" fill="#171716"/>
      <path id="Caminho_71" data-name="Caminho 71" d="M230.733,30.089a.277.277,0,0,1,.276-.278.277.277,0,0,1,0,.555.275.275,0,0,1-.276-.277" transform="translate(-138.207 -17.857)" fill="#171716"/>
      <path id="Caminho_72" data-name="Caminho 72" d="M229.345,31.473a.278.278,0,0,1,.555,0,.278.278,0,1,1-.555,0" transform="translate(-137.375 -18.688)" fill="#171716"/>
      <path id="Caminho_73" data-name="Caminho 73" d="M232.112,31.473a.278.278,0,0,1,.555,0,.278.278,0,1,1-.555,0" transform="translate(-139.033 -18.688)" fill="#171716"/>
      <path id="Caminho_74" data-name="Caminho 74" d="M214.777,158.448c.066.724.676,1.7,1.418,1.7a1.36,1.36,0,0,0,.241-.02,1.532,1.532,0,0,1-.886.279,1.428,1.428,0,0,1-.3-.029,2.291,2.291,0,0,1-.483,1.309,2.3,2.3,0,0,1-.474-1.309,1.442,1.442,0,0,1-.3.029,1.544,1.544,0,0,1-.888-.279,1.376,1.376,0,0,0,.242.02c.74,0,1.351-.974,1.417-1.7Z" transform="translate(-127.65 -94.909)" fill="#171716"/>
      <path id="Caminho_75" data-name="Caminho 75" d="M216.568,156.975a.275.275,0,0,1,.275-.278.277.277,0,1,1,0,.554.275.275,0,0,1-.275-.277" transform="translate(-129.722 -93.86)" fill="#171716"/>
      <path id="Caminho_76" data-name="Caminho 76" d="M215.185,158.357a.278.278,0,1,1,.275.277.279.279,0,0,1-.275-.277" transform="translate(-128.894 -94.688)" fill="#171716"/>
      <path id="Caminho_77" data-name="Caminho 77" d="M217.952,158.357a.278.278,0,1,1,.277.277.279.279,0,0,1-.277-.277" transform="translate(-130.551 -94.688)" fill="#171716"/>
      <path id="Caminho_78" data-name="Caminho 78" d="M290.593,185.969c-.063.726-.674,1.7-1.416,1.7a1.334,1.334,0,0,1-.243-.022,1.55,1.55,0,0,0,.892.281,1.42,1.42,0,0,0,.3-.031,2.276,2.276,0,0,0,.477,1.308,2.305,2.305,0,0,0,.481-1.308,1.393,1.393,0,0,0,.3.031,1.535,1.535,0,0,0,.886-.281,1.307,1.307,0,0,1-.239.022c-.744,0-1.354-.974-1.42-1.7Z" transform="translate(-173.069 -111.394)" fill="#171716"/>
      <path id="Caminho_79" data-name="Caminho 79" d="M292.4,184.5a.278.278,0,1,1,.277.276.273.273,0,0,1-.277-.276" transform="translate(-175.142 -110.347)" fill="#171716"/>
      <path id="Caminho_80" data-name="Caminho 80" d="M293.784,185.879a.277.277,0,1,1,.278.278.277.277,0,0,1-.278-.278" transform="translate(-175.974 -111.173)" fill="#171716"/>
      <path id="Caminho_81" data-name="Caminho 81" d="M291.011,185.879a.278.278,0,1,1,.28.278.28.28,0,0,1-.28-.278" transform="translate(-174.313 -111.173)" fill="#171716"/>
      <path id="Caminho_82" data-name="Caminho 82" d="M332.283,73.289c-.064.725-.672,1.7-1.417,1.7a1.505,1.505,0,0,1-.241-.019,1.535,1.535,0,0,0,.891.28,1.511,1.511,0,0,0,.3-.03,2.338,2.338,0,0,0,.477,1.308,2.31,2.31,0,0,0,.481-1.308,1.481,1.481,0,0,0,.3.03,1.537,1.537,0,0,0,.888-.28,1.467,1.467,0,0,1-.241.019c-.744,0-1.353-.975-1.418-1.7Z" transform="translate(-198.042 -43.9)" fill="#171716"/>
      <path id="Caminho_83" data-name="Caminho 83" d="M334.082,71.82a.279.279,0,1,1,.277.279.279.279,0,0,1-.277-.279" transform="translate(-200.112 -42.855)" fill="#171716"/>
      <path id="Caminho_84" data-name="Caminho 84" d="M335.472,73.2a.277.277,0,1,1,.277.277.278.278,0,0,1-.277-.277" transform="translate(-200.944 -43.682)" fill="#171716"/>
      <path id="Caminho_85" data-name="Caminho 85" d="M332.708,73.2a.275.275,0,0,1,.276-.278.277.277,0,1,1,0,.554.274.274,0,0,1-.276-.277" transform="translate(-199.289 -43.682)" fill="#171716"/>
      <path id="Caminho_86" data-name="Caminho 86" d="M327.41,117.955c-.066.727-.674,1.7-1.416,1.7a1.552,1.552,0,0,1-.243-.019,1.546,1.546,0,0,0,.888.28,1.516,1.516,0,0,0,.3-.03,2.3,2.3,0,0,0,.48,1.307,2.339,2.339,0,0,0,.477-1.307,1.506,1.506,0,0,0,.3.03,1.532,1.532,0,0,0,.888-.28,1.516,1.516,0,0,1-.241.019c-.742,0-1.351-.973-1.417-1.7Z" transform="translate(-195.122 -70.654)" fill="#171716"/>
      <path id="Caminho_87" data-name="Caminho 87" d="M329.212,116.486a.279.279,0,1,1,.279.275.277.277,0,0,1-.279-.275" transform="translate(-197.195 -69.608)" fill="#171716"/>
      <path id="Caminho_88" data-name="Caminho 88" d="M330.6,117.867a.279.279,0,0,1,.277-.281.278.278,0,1,1,0,.556.277.277,0,0,1-.277-.275" transform="translate(-198.024 -70.433)" fill="#171716"/>
      <path id="Caminho_89" data-name="Caminho 89" d="M327.827,117.867a.278.278,0,1,1,.28.275.281.281,0,0,1-.28-.275" transform="translate(-196.365 -70.433)" fill="#171716"/>
      <path id="Caminho_90" data-name="Caminho 90" d="M333.433,31.559c-.066.725-.672,1.7-1.416,1.7a1.5,1.5,0,0,1-.243-.019,1.558,1.558,0,0,0,.891.281,1.512,1.512,0,0,0,.3-.03,2.335,2.335,0,0,0,.477,1.307,2.262,2.262,0,0,0,.481-1.307,1.533,1.533,0,0,0,.3.03,1.557,1.557,0,0,0,.888-.281,1.452,1.452,0,0,1-.243.019c-.742,0-1.351-.974-1.417-1.7Z" transform="translate(-198.729 -18.904)" fill="#171716"/>
      <path id="Caminho_91" data-name="Caminho 91" d="M335.235,30.089a.278.278,0,1,1,.275.277.279.279,0,0,1-.275-.277" transform="translate(-200.802 -17.857)" fill="#171716"/>
      <path id="Caminho_92" data-name="Caminho 92" d="M336.62,31.473a.279.279,0,1,1,.277.279.278.278,0,0,1-.277-.279" transform="translate(-201.632 -18.688)" fill="#171716"/>
      <path id="Caminho_93" data-name="Caminho 93" d="M333.857,31.473a.276.276,0,1,1,.277.279.274.274,0,0,1-.277-.279" transform="translate(-199.977 -18.688)" fill="#171716"/>
      <path id="Caminho_94" data-name="Caminho 94" d="M299.125,31.559c-.066.725-.676,1.7-1.416,1.7a1.447,1.447,0,0,1-.243-.019,1.551,1.551,0,0,0,.89.281,1.491,1.491,0,0,0,.294-.03,2.287,2.287,0,0,0,.481,1.307,2.319,2.319,0,0,0,.479-1.307,1.5,1.5,0,0,0,.3.03,1.554,1.554,0,0,0,.887-.281,1.443,1.443,0,0,1-.241.019c-.742,0-1.353-.974-1.419-1.7Z" transform="translate(-178.179 -18.904)" fill="#171716"/>
      <path id="Caminho_95" data-name="Caminho 95" d="M300.927,30.089a.276.276,0,1,1,.276.277.277.277,0,0,1-.276-.277" transform="translate(-180.252 -17.857)" fill="#171716"/>
      <path id="Caminho_96" data-name="Caminho 96" d="M302.306,31.473a.277.277,0,1,1,.28.279.276.276,0,0,1-.28-.279" transform="translate(-181.078 -18.688)" fill="#171716"/>
      <path id="Caminho_97" data-name="Caminho 97" d="M299.536,31.473a.279.279,0,1,1,.28.279.278.278,0,0,1-.28-.279" transform="translate(-179.419 -18.688)" fill="#171716"/>
      <path id="Caminho_98" data-name="Caminho 98" d="M313.28,158.448c-.066.724-.675,1.7-1.417,1.7a1.383,1.383,0,0,1-.243-.02,1.54,1.54,0,0,0,.888.279,1.453,1.453,0,0,0,.3-.029,2.313,2.313,0,0,0,.479,1.309,2.326,2.326,0,0,0,.477-1.309,1.436,1.436,0,0,0,.3.029,1.541,1.541,0,0,0,.888-.279,1.383,1.383,0,0,1-.243.02c-.742,0-1.351-.974-1.417-1.7Z" transform="translate(-186.658 -94.909)" fill="#171716"/>
      <path id="Caminho_99" data-name="Caminho 99" d="M315.081,156.975a.278.278,0,1,1,.28.277.279.279,0,0,1-.28-.277" transform="translate(-188.73 -93.86)" fill="#171716"/>
      <path id="Caminho_100" data-name="Caminho 100" d="M316.466,158.357a.279.279,0,0,1,.275-.278.278.278,0,1,1,0,.556.278.278,0,0,1-.275-.277" transform="translate(-189.56 -94.688)" fill="#171716"/>
      <path id="Caminho_101" data-name="Caminho 101" d="M313.7,158.357a.281.281,0,0,1,.28-.278.278.278,0,1,1-.28.278" transform="translate(-187.901 -94.688)" fill="#171716"/>
      <path id="Caminho_102" data-name="Caminho 102" d="M260.824,45.858a2.283,2.283,0,1,1,2.282,2.282A2.285,2.285,0,0,1,260.824,45.858Zm2.282,1.734a1.735,1.735,0,1,1,1.737-1.734A1.734,1.734,0,0,1,263.106,47.593Zm-1.824,50.651v0Z" transform="translate(-156.231 -26.101)" fill="none" stroke="#171716" stroke-width="0.041"/>
      <path id="Caminho_103" data-name="Caminho 103" d="M261.967,48.714h3.651v52.609c-.086,1.884-.822,4.29-1.827,4.882-1-.592-1.74-3-1.817-4.882l-.006-.143Z" transform="translate(-156.916 -29.18)" fill="#171716"/>
      <path id="Caminho_104" data-name="Caminho 104" d="M227.8,93.687a1.827,1.827,0,0,1,1.826-1.825,2.488,2.488,0,0,1,0,.273,1.371,1.371,0,0,0,2.743,0,1.3,1.3,0,0,0-.029-.273h.119a17.125,17.125,0,0,0,7.854,0H241.5V95.15a11.635,11.635,0,0,0-5.331-.421,15.854,15.854,0,0,0-3.651.786l-2.893,0a1.826,1.826,0,0,1-1.826-1.826" transform="translate(-136.448 -55.025)" fill="#171716" fill-rule="evenodd"/>
      <path id="Caminho_105" data-name="Caminho 105" d="M237.2,93.682a16.286,16.286,0,0,0,4-.456h.57V95.2a14.344,14.344,0,0,0-4.842-.2,16.554,16.554,0,0,0-3.688.783h-2.8a1.28,1.28,0,0,1-.51-2.453,1.918,1.918,0,0,0,3.758.01,17.03,17.03,0,0,0,3.512.341" transform="translate(-137.268 -55.842)" fill="#ffb700"/>
      <path id="Caminho_106" data-name="Caminho 106" d="M284.772,93.687a1.825,1.825,0,0,0-1.826-1.825,2.484,2.484,0,0,0,0,.273,1.371,1.371,0,0,1-2.742,0,1.328,1.328,0,0,1,.029-.273h-.12a17.132,17.132,0,0,1-7.856,0h-1.186V95.15a11.641,11.641,0,0,1,5.333-.421,15.881,15.881,0,0,1,3.651.786l2.89,0a1.825,1.825,0,0,0,1.826-1.826" transform="translate(-162.369 -55.025)" fill="#171716" fill-rule="evenodd"/>
      <path id="Caminho_107" data-name="Caminho 107" d="M277,93.682a16.271,16.271,0,0,1-4-.456h-.569V95.2a14.338,14.338,0,0,1,4.842-.2,16.583,16.583,0,0,1,3.69.783h2.8a1.279,1.279,0,0,0,.508-2.453,1.917,1.917,0,0,1-3.756.01,17,17,0,0,1-3.512.341" transform="translate(-163.186 -55.842)" fill="#ffb700"/>
      <path id="Caminho_108" data-name="Caminho 108" d="M246.211,76.105a.73.73,0,0,0,.064.086c.284.283.9.377,2.769.03a29.268,29.268,0,0,0,4.3-1.2.417.417,0,0,1,.064-.014.385.385,0,0,1,.066.014,29.342,29.342,0,0,0,4.3,1.2c1.865.347,2.486.253,2.768-.03a.436.436,0,0,0,.063-.086,1,1,0,0,1-.711.255,1.212,1.212,0,0,1-1.385-1.308,1.351,1.351,0,0,1,1.385-1.535c1.086,0,2.284.257,2.284,2.4a2.22,2.22,0,0,1-1.215,2.029,3.468,3.468,0,0,1-.812.318,2.559,2.559,0,0,1-.4.076h-12.7a2.624,2.624,0,0,1-.4-.076,3.541,3.541,0,0,1-.812-.318,2.217,2.217,0,0,1-1.215-2.029c0-2.141,1.2-2.4,2.283-2.4a1.35,1.35,0,0,1,1.387,1.535,1.213,1.213,0,0,1-1.387,1.308,1.008,1.008,0,0,1-.71-.255" transform="translate(-146.536 -44.037)" fill="#171716"/>
      <path id="Caminho_109" data-name="Caminho 109" d="M254.464,76.487c.232.08.569.193.978.32a27.536,27.536,0,0,0,3.057.773c1.778.332,2.728.343,3.252-.181a.936.936,0,0,0,.158-.211.545.545,0,0,0-.855-.665.456.456,0,0,1-.335.109c-.726,0-.841-.351-.841-.76,0-.5.144-.986.841-.986.923,0,1.735.138,1.735,1.848a1.674,1.674,0,0,1-.935,1.55,2.722,2.722,0,0,1-.683.267,2.12,2.12,0,0,1-.228.049l-.064.01H247.913l-.07-.01c-.053-.008-.129-.024-.226-.049a2.753,2.753,0,0,1-.68-.267,1.676,1.676,0,0,1-.936-1.55c0-1.711.814-1.848,1.738-1.848.695,0,.839.482.839.986,0,.408-.113.76-.839.76a.453.453,0,0,1-.337-.109.545.545,0,0,0-.855.665,1.024,1.024,0,0,0,.158.211c.523.524,1.474.513,3.255.181a29.8,29.8,0,0,0,4.268-1.177Z" transform="translate(-147.352 -44.857)" fill="#ffb700"/>
      <path id="Caminho_110" data-name="Caminho 110" d="M264.61,106.31a7.946,7.946,0,0,1-1.275-4.188l0-.142v-51.9h2.556v52.06a8,8,0,0,1-1.277,4.167" transform="translate(-157.733 -30)" fill="#ffb700"/>
      <path id="Caminho_111" data-name="Caminho 111" d="M260.331,81.131a2.031,2.031,0,0,1,1.824,1.179,2.041,2.041,0,0,1,1.827-1.179h.915a.186.186,0,0,1,.181.183v.076l-.01.062a20.245,20.245,0,0,0-.058,12.359.186.186,0,0,1-.124.237,4.55,4.55,0,0,0-2.57,2.347.169.169,0,0,1-.323,0,4.535,4.535,0,0,0-2.57-2.347.185.185,0,0,1-.121-.237,20.284,20.284,0,0,0-.058-12.359l-.01-.062v-.076a.186.186,0,0,1,.183-.183Z" transform="translate(-155.279 -48.597)" fill="#171716"/>
      <path id="Caminho_112" data-name="Caminho 112" d="M261.317,82.5a1.475,1.475,0,0,1,1.464,1.466.365.365,0,1,0,.73,0,1.476,1.476,0,0,1,1.466-1.466h.427a21,21,0,0,0-.035,11.967,5,5,0,0,0-2.222,1.945,5.015,5.015,0,0,0-2.222-1.945A21.036,21.036,0,0,0,260.89,82.5Z" transform="translate(-156.271 -49.415)" fill="#ffb700" fill-rule="evenodd"/>
      <line id="Linha_5" data-name="Linha 5" y2="20.426" transform="translate(106.873 47.194)" fill="none" stroke="#171716" stroke-width="0.217"/>
      <path id="Caminho_113" data-name="Caminho 113" d="M262.88,68.184l.008-.184c0,.064,0,.123-.008.184M259.235,68v.184c0-.062,0-.12,0-.184m-1.826,0a3.652,3.652,0,0,1,1.826-3.164V68c0,.064,0,.123.008.184a1.828,1.828,0,0,0,3.637,0c.006-.062.008-.12.008-.184V64.836A3.653,3.653,0,1,1,257.409,68" transform="translate(-154.185 -38.837)" fill="#ffb700" fill-rule="evenodd"/>
      <path id="Caminho_114" data-name="Caminho 114" d="M257.409,68a3.652,3.652,0,0,1,1.826-3.164v.653a3.1,3.1,0,1,0,3.653,0v-.653A3.653,3.653,0,1,1,257.409,68" transform="translate(-154.185 -38.837)" fill="#171716" fill-rule="evenodd"/>
      <path id="Caminho_115" data-name="Caminho 115" d="M261.736,71.849a1.909,1.909,0,0,1,.091-.586v.586h.456a1.369,1.369,0,1,0,2.738,0h.459v-.586a1.918,1.918,0,1,1-3.744.586" transform="translate(-156.777 -42.686)" fill="#171716" fill-rule="evenodd"/>
      <path id="Caminho_116" data-name="Caminho 116" d="M264.674,94.685a.74.74,0,1,1,.738-.738.741.741,0,0,1-.738.738m-1.236-.738a1.234,1.234,0,1,1,1.236,1.233,1.236,1.236,0,0,1-1.236-1.233" transform="translate(-157.797 -55.535)" fill="#171716" fill-rule="evenodd"/>
      <path id="Caminho_117" data-name="Caminho 117" d="M260.829,45.859a2.283,2.283,0,1,1,2.282,2.282,2.281,2.281,0,0,1-2.282-2.282" transform="translate(-156.234 -26.103)" fill="#171716"/>
      <path id="Caminho_118" data-name="Caminho 118" d="M263.928,48.413a1.735,1.735,0,1,1,1.733-1.735,1.735,1.735,0,0,1-1.733,1.735" transform="translate(-157.051 -26.921)" fill="#ffb700"/>
      <path id="Caminho_119" data-name="Caminho 119" d="M266.294,54.922l.911-.189v.379Z" transform="translate(-159.507 -32.785)" fill="#171716" fill-rule="evenodd"/>
      <path id="Caminho_120" data-name="Caminho 120" d="M266.294,55.847l.911-.189v.379Z" transform="translate(-159.507 -33.339)" fill="#171716" fill-rule="evenodd"/>
      <path id="Caminho_121" data-name="Caminho 121" d="M266.294,56.775l.911-.191v.379Z" transform="translate(-159.507 -33.893)" fill="#171716" fill-rule="evenodd"/>
      <path id="Caminho_122" data-name="Caminho 122" d="M266.294,57.707l.911-.187V57.9Z" transform="translate(-159.507 -34.454)" fill="#171716" fill-rule="evenodd"/>
      <path id="Caminho_123" data-name="Caminho 123" d="M266.294,58.632l.911-.19v.377Z" transform="translate(-159.507 -35.007)" fill="#171716" fill-rule="evenodd"/>
      <path id="Caminho_124" data-name="Caminho 124" d="M266.294,59.56l.911-.187v.379Z" transform="translate(-159.507 -35.564)" fill="#171716" fill-rule="evenodd"/>
      <path id="Caminho_125" data-name="Caminho 125" d="M266.294,60.484l.911-.191v.378Z" transform="translate(-159.507 -36.115)" fill="#171716" fill-rule="evenodd"/>
      <path id="Caminho_126" data-name="Caminho 126" d="M266.294,61.414l.911-.188v.379Z" transform="translate(-159.507 -36.674)" fill="#171716" fill-rule="evenodd"/>
      <path id="Caminho_127" data-name="Caminho 127" d="M266.294,62.337l.911-.191v.379Z" transform="translate(-159.507 -37.225)" fill="#171716" fill-rule="evenodd"/>
      <path id="Caminho_128" data-name="Caminho 128" d="M266.294,63.267l.911-.187v.379Z" transform="translate(-159.507 -37.785)" fill="#171716" fill-rule="evenodd"/>
      <path id="Caminho_129" data-name="Caminho 129" d="M266.294,64.191,267.2,64v.381Z" transform="translate(-159.507 -38.335)" fill="#171716" fill-rule="evenodd"/>
      <path id="Caminho_130" data-name="Caminho 130" d="M266.294,65.121l.911-.189v.38Z" transform="translate(-159.507 -38.894)" fill="#171716" fill-rule="evenodd"/>
      <path id="Caminho_131" data-name="Caminho 131" d="M266.294,66.048l.911-.19v.379Z" transform="translate(-159.507 -39.449)" fill="#171716" fill-rule="evenodd"/>
      <path id="Caminho_132" data-name="Caminho 132" d="M266.294,66.975l.911-.189v.379Z" transform="translate(-159.507 -40.004)" fill="#171716" fill-rule="evenodd"/>
      <path id="Caminho_133" data-name="Caminho 133" d="M266.294,67.9l.911-.189v.379Z" transform="translate(-159.507 -40.56)" fill="#171716" fill-rule="evenodd"/>
      <path id="Caminho_134" data-name="Caminho 134" d="M266.294,68.831l.911-.189v.379Z" transform="translate(-159.507 -41.116)" fill="#171716" fill-rule="evenodd"/>
      <path id="Caminho_135" data-name="Caminho 135" d="M266.294,69.756l.911-.189v.38Z" transform="translate(-159.507 -41.67)" fill="#171716" fill-rule="evenodd"/>
      <path id="Caminho_136" data-name="Caminho 136" d="M266.294,70.684l.911-.189v.379Z" transform="translate(-159.507 -42.226)" fill="#171716" fill-rule="evenodd"/>
      <path id="Caminho_137" data-name="Caminho 137" d="M266.294,71.613l.911-.187V71.8Z" transform="translate(-159.507 -42.784)" fill="#171716" fill-rule="evenodd"/>
      <path id="Caminho_138" data-name="Caminho 138" d="M266.294,72.537l.911-.191v.379Z" transform="translate(-159.507 -43.335)" fill="#171716" fill-rule="evenodd"/>
      <path id="Caminho_139" data-name="Caminho 139" d="M266.294,73.468l.911-.188v.379Z" transform="translate(-159.507 -43.894)" fill="#171716" fill-rule="evenodd"/>
      <path id="Caminho_140" data-name="Caminho 140" d="M266.294,74.395l.911-.19v.377Z" transform="translate(-159.507 -44.448)" fill="#171716" fill-rule="evenodd"/>
      <path id="Caminho_141" data-name="Caminho 141" d="M266.294,75.322l.911-.187v.379Z" transform="translate(-159.507 -45.006)" fill="#171716" fill-rule="evenodd"/>
      <path id="Caminho_142" data-name="Caminho 142" d="M264.243,74.323a.913.913,0,0,1,1.826,0v3.656a.913.913,0,0,1-1.826,0Z" transform="translate(-158.279 -43.973)" fill="#171716"/>
      <path id="Caminho_143" data-name="Caminho 143" d="M266.337,78.8a.365.365,0,0,1-.73,0V75.14a.365.365,0,1,1,.73,0Z" transform="translate(-159.096 -44.789)" fill="#ffb700"/>
      <path id="Caminho_144" data-name="Caminho 144" d="M226.679,132.266c3.958,0,5.843.764,5.843.82,0,2.649-2.537,4.933-5.843,4.933s-5.847-2.284-5.847-4.933c0-.057,1.887-.82,5.847-.82m6.392.82c0,3.025-2.862,5.48-6.392,5.48s-6.394-2.455-6.394-5.48c0-.756,2.86-1.37,6.394-1.37s6.392.615,6.392,1.37" transform="translate(-131.949 -78.897)" fill="#171716" fill-rule="evenodd"/>
      <path id="Caminho_145" data-name="Caminho 145" d="M227.5,133.085c3.957,0,5.842.764,5.842.821,0,2.648-2.537,4.932-5.842,4.932s-5.847-2.285-5.847-4.932c0-.058,1.887-.821,5.847-.821" transform="translate(-132.766 -79.717)" fill="#ffb700"/>
      <path id="Caminho_146" data-name="Caminho 146" d="M220.285,133.086c0-.756,2.86-1.37,6.394-1.37s6.392.615,6.392,1.37h-.549c0-.057-1.886-.82-5.843-.82s-5.847.764-5.847.82Z" transform="translate(-131.949 -78.897)" fill="#171716"/>
      <path id="Caminho_147" data-name="Caminho 147" d="M227.5,134.727c-3.96,0-5.847-.765-5.847-.821s1.887-.824,5.847-.824,5.842.765,5.842.824-1.885.821-5.842.821" transform="translate(-132.766 -79.715)" fill="#ffb700"/>
      <path id="Caminho_148" data-name="Caminho 148" d="M233.071,135.133c0,.757-2.862,1.371-6.392,1.371s-6.394-.615-6.394-1.371h.547c0,.058,1.887.821,5.847.821s5.843-.764,5.843-.821Z" transform="translate(-131.949 -80.944)" fill="#171716"/>
      <path id="Caminho_149" data-name="Caminho 149" d="M225.989,94.082a.594.594,0,0,1-.019-.438.691.691,0,0,1,.855-.41.637.637,0,0,1,.438.806.654.654,0,0,1-.29.345.578.578,0,0,1,.016.436.626.626,0,0,1-.286.345.581.581,0,0,1,.016.438.634.634,0,0,1-.284.346.587.587,0,0,1,.014.436.638.638,0,0,1-.286.345.591.591,0,0,1,.018.436.638.638,0,0,1-.286.344.6.6,0,0,1,.015.438.623.623,0,0,1-.284.343.6.6,0,0,1,.014.438.631.631,0,0,1-.284.345.6.6,0,0,1,.014.436.638.638,0,0,1-.282.345.619.619,0,0,1,.015.438.656.656,0,0,1-.286.344.625.625,0,0,1,.016.438.659.659,0,0,1-.286.346.608.608,0,0,1,.014.436.636.636,0,0,1-.284.345.623.623,0,0,1,.016.437.647.647,0,0,1-.286.346.606.606,0,0,1,.016.436.652.652,0,0,1-.288.346.625.625,0,0,1,.02.436.645.645,0,0,1-.29.345.607.607,0,0,1,.018.438.642.642,0,0,1-.286.343.6.6,0,0,1,.014.438.645.645,0,0,1-.284.345.6.6,0,0,1,.014.435.624.624,0,0,1-.286.345.586.586,0,0,1,.019.438.639.639,0,0,1-.288.345.575.575,0,0,1,.016.436.639.639,0,0,1-.284.345.587.587,0,0,1,.014.436.616.616,0,0,1-.284.345.6.6,0,0,1,.016.438.658.658,0,0,1-.288.346.576.576,0,0,1,.018.436.689.689,0,0,1-.855.41.625.625,0,0,1-.148-1.149.612.612,0,0,1-.016-.438.646.646,0,0,1,.286-.345.591.591,0,0,1-.018-.436.65.65,0,0,1,.286-.345.607.607,0,0,1-.014-.438.647.647,0,0,1,.286-.344.6.6,0,0,1-.019-.437.646.646,0,0,1,.288-.344.6.6,0,0,1-.016-.436.62.62,0,0,1,.284-.345.593.593,0,0,1-.014-.438.642.642,0,0,1,.284-.344.6.6,0,0,1-.016-.437.641.641,0,0,1,.288-.344.594.594,0,0,1-.018-.438.65.65,0,0,1,.287-.345.589.589,0,0,1-.016-.438.646.646,0,0,1,.284-.343.61.61,0,0,1-.015-.438.655.655,0,0,1,.284-.345.6.6,0,0,1-.016-.438.64.64,0,0,1,.288-.342.607.607,0,0,1-.019-.438.657.657,0,0,1,.286-.343.615.615,0,0,1-.014-.438.647.647,0,0,1,.286-.345.607.607,0,0,1-.019-.436.657.657,0,0,1,.286-.345.6.6,0,0,1-.016-.438.644.644,0,0,1,.286-.342.614.614,0,0,1-.016-.438.641.641,0,0,1,.287-.345.607.607,0,0,1-.016-.436.633.633,0,0,1,.286-.345.589.589,0,0,1-.016-.438.628.628,0,0,1,.284-.344.6.6,0,0,1-.014-.438.645.645,0,0,1,.284-.345.614.614,0,0,1-.016-.436.652.652,0,0,1,.288-.345" transform="translate(-131.947 -55.828)" fill="#171716"/>
      <path id="Caminho_150" data-name="Caminho 150" d="M226.724,94.671c.1-.012.128-.091.056-.155a.348.348,0,0,1-.1-.377.391.391,0,0,1,.488-.233.361.361,0,0,1,.248.459.385.385,0,0,1-.314.251c-.1.01-.126.091-.055.156a.35.35,0,0,1,.1.376.393.393,0,0,1-.316.249c-.1.012-.128.09-.054.155a.359.359,0,0,1,.1.377.391.391,0,0,1-.317.251c-.1.012-.126.088-.051.155a.361.361,0,0,1,.1.375.384.384,0,0,1-.317.251c-.1.012-.124.091-.054.155a.355.355,0,0,1,.1.377.388.388,0,0,1-.317.248c-.1.013-.126.09-.053.156a.36.36,0,0,1,.1.377.4.4,0,0,1-.317.25c-.1.013-.127.089-.055.156a.342.342,0,0,1,.1.374.386.386,0,0,1-.316.251c-.1.012-.124.091-.053.155a.347.347,0,0,1,.1.377.383.383,0,0,1-.314.249c-.1.012-.125.091-.053.156a.357.357,0,0,1,.1.377.39.39,0,0,1-.316.251c-.1.012-.126.088-.055.155a.349.349,0,0,1,.1.375.39.39,0,0,1-.314.249c-.1.014-.128.089-.056.156a.342.342,0,0,1,.1.377.376.376,0,0,1-.315.248c-.1.012-.126.09-.051.156a.354.354,0,0,1,.1.377.384.384,0,0,1-.315.251c-.1.012-.128.088-.053.156a.354.354,0,0,1,.1.374.379.379,0,0,1-.315.251c-.1.012-.126.089-.056.156a.345.345,0,0,1,.1.376.382.382,0,0,1-.312.249c-.1.012-.13.09-.056.155a.351.351,0,0,1,.1.377.389.389,0,0,1-.314.251c-.1.012-.127.089-.054.153a.354.354,0,0,1,.1.377.384.384,0,0,1-.316.25c-.1.013-.125.091-.052.156a.36.36,0,0,1,.1.377.382.382,0,0,1-.317.248c-.1.013-.123.09-.053.156a.354.354,0,0,1,.1.376.4.4,0,0,1-.317.251c-.1.012-.125.089-.053.153a.36.36,0,0,1,.1.377.389.389,0,0,1-.316.251c-.1.012-.128.091-.053.155a.353.353,0,0,1,.1.377.385.385,0,0,1-.317.249c-.1.012-.124.091-.054.156a.352.352,0,0,1,.1.377.385.385,0,0,1-.315.249c-.1.014-.126.089-.053.156a.356.356,0,0,1,.1.375.4.4,0,0,1-.489.235.366.366,0,0,1-.251-.461.39.39,0,0,1,.317-.249c.1-.012.128-.093.053-.156a.354.354,0,0,1-.1-.376.378.378,0,0,1,.316-.249c.1-.014.126-.092.052-.158a.351.351,0,0,1-.1-.377.385.385,0,0,1,.316-.249c.1-.012.124-.09.049-.155a.363.363,0,0,1-.1-.377.388.388,0,0,1,.317-.249c.1-.012.126-.09.055-.157a.352.352,0,0,1-.1-.375.379.379,0,0,1,.316-.249c.1-.012.126-.093.056-.157a.345.345,0,0,1-.1-.377.38.38,0,0,1,.313-.248c.1-.013.128-.09.055-.156a.347.347,0,0,1-.1-.377.377.377,0,0,1,.313-.248c.1-.012.128-.091.053-.156a.358.358,0,0,1-.1-.376.376.376,0,0,1,.315-.249c.1-.012.128-.093.055-.157a.351.351,0,0,1-.1-.377.385.385,0,0,1,.315-.249c.1-.012.126-.09.056-.155a.342.342,0,0,1-.1-.377.381.381,0,0,1,.312-.249c.1-.012.128-.091.053-.155a.355.355,0,0,1-.1-.377.381.381,0,0,1,.314-.25c.1-.013.128-.09.054-.156a.356.356,0,0,1-.1-.377.378.378,0,0,1,.316-.248c.1-.012.123-.091.053-.156a.352.352,0,0,1-.1-.376.38.38,0,0,1,.319-.249c.1-.012.123-.093.053-.156a.353.353,0,0,1-.1-.376.388.388,0,0,1,.316-.251c.1-.012.128-.091.054-.156a.355.355,0,0,1-.1-.377.385.385,0,0,1,.317-.249c.1-.012.123-.09.051-.155a.356.356,0,0,1-.1-.377.383.383,0,0,1,.315-.249c.1-.012.125-.091.051-.155a.363.363,0,0,1-.1-.377.385.385,0,0,1,.317-.25c.1-.013.126-.091.056-.156a.355.355,0,0,1-.1-.377.384.384,0,0,1,.317-.248c.1-.014.128-.09.055-.156a.343.343,0,0,1-.1-.377.382.382,0,0,1,.316-.249c.1-.012.124-.091.054-.156a.351.351,0,0,1-.1-.376.387.387,0,0,1,.317-.251c.1-.012.127-.09.054-.155a.357.357,0,0,1-.1-.377.381.381,0,0,1,.314-.249" transform="translate(-132.378 -56.238)" fill="#ffb700"/>
      <path id="Caminho_151" data-name="Caminho 151" d="M235,94.386a.649.649,0,0,1-.288-.345.632.632,0,0,1,.436-.8.686.686,0,0,1,.856.41.591.591,0,0,1-.019.436.657.657,0,0,1,.289.345.6.6,0,0,1-.016.436.642.642,0,0,1,.286.346.622.622,0,0,0,.267.782.593.593,0,0,1-.014.436.636.636,0,0,1,.284.346.593.593,0,0,1-.016.436.658.658,0,0,1,.29.345.615.615,0,0,1-.02.438.639.639,0,0,1,.287.345.594.594,0,0,1-.016.436.641.641,0,0,1,.286.345.609.609,0,0,1-.014.436.645.645,0,0,1,.281.344.615.615,0,0,1-.014.438.663.663,0,0,1,.286.345.614.614,0,0,1-.016.436.673.673,0,0,1,.286.345.622.622,0,0,1-.015.436.672.672,0,0,1,.284.346.624.624,0,0,1-.016.438.63.63,0,0,1,.284.345.6.6,0,0,1-.015.436.65.65,0,0,1,.286.345.591.591,0,0,1-.019.438.633.633,0,0,1,.288.346.6.6,0,0,1-.016.436.636.636,0,0,1,.284.344.586.586,0,0,1-.014.436.622.622,0,0,1,.284.346.589.589,0,0,1-.014.436.647.647,0,0,1,.286.345.613.613,0,0,1-.019.438.645.645,0,0,1,.288.345.612.612,0,0,1-.016.436.628.628,0,0,1,.284.345.593.593,0,0,1-.014.435.661.661,0,0,1,.285.345.594.594,0,0,1-.018.438.627.627,0,0,1-.146,1.152.693.693,0,0,1-.857-.413.6.6,0,0,1,.017-.436.633.633,0,0,1-.284-.345.584.584,0,0,1,.015-.435.639.639,0,0,1-.284-.347.578.578,0,0,1,.016-.436.662.662,0,0,1-.288-.345.588.588,0,0,1,.019-.436.654.654,0,0,1-.289-.345.608.608,0,0,1,.019-.438.627.627,0,0,1-.286-.343.6.6,0,0,1,.014-.438.652.652,0,0,1-.284-.346.606.606,0,0,1,.016-.436.63.63,0,0,1-.286-.345.612.612,0,0,1,.016-.438.628.628,0,0,1-.288-.344.6.6,0,0,1,.019-.436.653.653,0,0,1-.288-.345.6.6,0,0,1,.016-.436.649.649,0,0,1-.284-.345.612.612,0,0,1,.014-.438.635.635,0,0,1-.284-.344.615.615,0,0,1,.014-.438.66.66,0,0,1-.286-.345.614.614,0,0,1,.016-.436.667.667,0,0,1-.285-.344.628.628,0,0,1,.016-.437.659.659,0,0,1-.284-.344.611.611,0,0,1,.014-.438.642.642,0,0,1-.284-.345.582.582,0,0,1,.016-.436.653.653,0,0,1-.288-.345.6.6,0,0,1,.018-.438.633.633,0,0,1-.285-.343.6.6,0,0,1,.014-.438.625.625,0,0,1-.284-.345.572.572,0,0,1,.016-.436.63.63,0,0,1-.286-.344.6.6,0,0,1,.016-.438.621.621,0,0,1-.284-.343.591.591,0,0,1,.015-.438" transform="translate(-140.572 -55.829)" fill="#171716"/>
      <path id="Caminho_152" data-name="Caminho 152" d="M235.8,94.769c.072-.065.043-.143-.055-.155a.379.379,0,0,1-.314-.249.361.361,0,0,1,.251-.461.4.4,0,0,1,.487.235.356.356,0,0,1-.1.377c-.072.065-.047.141.056.153a.381.381,0,0,1,.312.251.343.343,0,0,1-.1.374c-.072.068-.045.144.054.158a.376.376,0,0,1,.314.251.349.349,0,0,1-.1.374c-.074.066-.047.144.053.156a.383.383,0,0,1,.315.249.353.353,0,0,1-.1.378c-.072.066-.043.142.055.156a.387.387,0,0,1,.317.249.346.346,0,0,1-.1.374c-.07.068-.044.143.055.158a.38.38,0,0,1,.315.25.348.348,0,0,1-.1.375c-.072.065-.043.143.055.156a.386.386,0,0,1,.317.25.359.359,0,0,1-.1.377c-.072.065-.047.141.051.153a.391.391,0,0,1,.317.251.348.348,0,0,1-.1.377c-.072.065-.043.141.056.155a.391.391,0,0,1,.316.249.348.348,0,0,1-.1.376c-.07.066-.045.144.054.156a.387.387,0,0,1,.316.251.358.358,0,0,1-.1.377c-.072.066-.045.14.054.154a.383.383,0,0,1,.314.25.352.352,0,0,1-.1.377c-.072.065-.047.141.052.156a.381.381,0,0,1,.316.248.353.353,0,0,1-.1.377c-.074.065-.047.143.053.156a.387.387,0,0,1,.315.251.357.357,0,0,1-.1.377c-.074.065-.046.143.053.155a.391.391,0,0,1,.317.249.351.351,0,0,1-.1.377c-.07.066-.043.144.053.156a.375.375,0,0,1,.317.251.354.354,0,0,1-.1.374c-.072.066-.048.144.053.156a.383.383,0,0,1,.314.251.353.353,0,0,1-.1.376c-.074.066-.045.141.051.154a.387.387,0,0,1,.317.25.35.35,0,0,1-.1.377c-.074.066-.045.143.055.156a.38.38,0,0,1,.312.248.347.347,0,0,1-.1.377c-.07.065-.043.143.055.155a.382.382,0,0,1,.314.251.355.355,0,0,1-.1.375c-.074.067-.045.143.054.155a.389.389,0,0,1,.314.251.352.352,0,0,1-.1.377c-.072.065-.045.143.054.155a.377.377,0,0,1,.314.251.339.339,0,0,1-.1.374c-.072.066-.043.143.055.156a.39.39,0,0,1,.317.25.363.363,0,0,1-.251.46.394.394,0,0,1-.489-.233.362.362,0,0,1,.1-.377c.074-.065.049-.143-.049-.156a.384.384,0,0,1-.317-.249.352.352,0,0,1,.1-.377c.074-.065.047-.143-.051-.157a.38.38,0,0,1-.317-.249.353.353,0,0,1,.1-.374c.075-.066.048-.146-.053-.158a.4.4,0,0,1-.316-.249.35.35,0,0,1,.1-.376c.07-.066.045-.144-.053-.156a.376.376,0,0,1-.317-.249.344.344,0,0,1,.1-.376c.07-.066.045-.146-.056-.158a.373.373,0,0,1-.314-.249.351.351,0,0,1,.1-.376c.074-.064.045-.143-.052-.156a.372.372,0,0,1-.314-.248.347.347,0,0,1,.1-.377c.072-.065.043-.143-.055-.156a.378.378,0,0,1-.312-.248.341.341,0,0,1,.1-.377c.07-.065.044-.143-.055-.158a.378.378,0,0,1-.315-.247.353.353,0,0,1,.1-.377c.072-.067.043-.145-.056-.157a.382.382,0,0,1-.315-.249.358.358,0,0,1,.1-.377c.072-.066.048-.144-.051-.156a.381.381,0,0,1-.317-.251.347.347,0,0,1,.1-.374c.072-.066.043-.145-.056-.158a.379.379,0,0,1-.314-.245.353.353,0,0,1,.1-.379c.07-.065.043-.143-.056-.156a.384.384,0,0,1-.316-.248.357.357,0,0,1,.1-.377c.072-.065.047-.143-.054-.156a.386.386,0,0,1-.317-.251.356.356,0,0,1,.1-.375c.072-.065.047-.145-.052-.157a.381.381,0,0,1-.316-.247.359.359,0,0,1,.1-.378c.074-.066.047-.144-.052-.156a.38.38,0,0,1-.316-.249.35.35,0,0,1,.1-.376c.072-.066.045-.144-.055-.156a.386.386,0,0,1-.317-.251.346.346,0,0,1,.1-.374c.069-.066.045-.143-.054-.158a.376.376,0,0,1-.317-.248.355.355,0,0,1,.1-.377c.072-.066.048-.143-.051-.156a.378.378,0,0,1-.317-.248.357.357,0,0,1,.1-.377c.074-.065.049-.143-.054-.155a.378.378,0,0,1-.312-.251.342.342,0,0,1,.1-.375c.072-.065.045-.145-.056-.158a.383.383,0,0,1-.314-.249.349.349,0,0,1,.1-.377" transform="translate(-141.008 -56.238)" fill="#ffb700"/>
      <path id="Caminho_153" data-name="Caminho 153" d="M234.691,94.274a.625.625,0,0,1-.158-.41.68.68,0,0,1,1.357,0,.605.605,0,0,0,0,.821.621.621,0,0,1-.16.413.613.613,0,0,1,.16.411.6.6,0,0,0,0,.82.623.623,0,0,1-.16.413.609.609,0,0,1,.16.41.606.606,0,0,0,0,.821.613.613,0,0,1-.16.41.608.608,0,0,1,0,.823.619.619,0,0,1,.16.41.609.609,0,0,1-.16.41,1.712,1.712,0,0,0,.16,1.234.61.61,0,0,1-.16.41.608.608,0,0,1,0,.823.61.61,0,0,1,.16.41.606.606,0,0,0,0,.822.608.608,0,0,0,0,.823.6.6,0,0,0,0,.82.623.623,0,0,1-.16.413.6.6,0,0,1,0,.82,1.705,1.705,0,0,0,.16,1.231.614.614,0,0,1-.16.411.629.629,0,0,1,.16.412.613.613,0,0,1-.16.411,1.713,1.713,0,0,0,.16,1.234.606.606,0,0,0,0,.821.68.68,0,0,1-1.357,0,.611.611,0,0,0,0-.821.612.612,0,0,0,0-.822.627.627,0,0,1,.158-.412.621.621,0,0,1-.158-.411.637.637,0,0,1,.158-.412.622.622,0,0,1-.158-.411.61.61,0,0,0,0-.82.611.611,0,0,0,0-.821.62.62,0,0,1,.158-.41,1.726,1.726,0,0,0-.158-1.234.614.614,0,0,0,0-.823.612.612,0,0,0,0-.822.618.618,0,0,1,.158-.41.614.614,0,0,1,0-.823.618.618,0,0,1-.158-.41.611.611,0,0,0,0-.821.63.63,0,0,1,.158-.413.617.617,0,0,1-.158-.41.611.611,0,0,0,0-.821.635.635,0,0,1,.158-.412.621.621,0,0,1-.158-.41.611.611,0,0,0,0-.821.617.617,0,0,1,.158-.41,1.726,1.726,0,0,0-.158-1.234.621.621,0,0,1,.158-.411.615.615,0,0,1,0-.824" transform="translate(-140.483 -55.84)" fill="#171716"/>
      <path id="Caminho_154" data-name="Caminho 154" d="M235.479,94.766c.089-.042.089-.122,0-.163a.364.364,0,0,1-.218-.329.388.388,0,0,1,.776,0,.363.363,0,0,1-.22.329c-.089.041-.089.121,0,.163a.366.366,0,0,1,.22.329.36.36,0,0,1-.22.328c-.089.042-.089.124,0,.164a.366.366,0,0,1,.22.331.36.36,0,0,1-.22.328c-.089.043-.089.125,0,.165a.357.357,0,0,1,0,.659c-.089.04-.089.121,0,.164a.354.354,0,0,1,0,.656c-.089.043-.089.125,0,.165a.355.355,0,0,1,0,.657c-.089.042-.089.124,0,.164a.357.357,0,0,1,0,.659c-.089.04-.089.122,0,.164a.355.355,0,0,1,0,.657c-.089.042-.089.125,0,.166a.355.355,0,0,1,0,.657c-.089.042-.089.122,0,.164a.355.355,0,0,1,0,.657c-.089.042-.089.124,0,.164a.357.357,0,0,1,0,.659c-.089.04-.089.122,0,.164a.355.355,0,0,1,0,.657c-.089.042-.089.121,0,.163a.367.367,0,0,1,.22.329.36.36,0,0,1-.22.328c-.089.042-.089.125,0,.167a.355.355,0,0,1,0,.657c-.089.04-.089.122,0,.164a.357.357,0,0,1,0,.659c-.089.04-.089.122,0,.164a.358.358,0,0,1,.22.328.363.363,0,0,1-.22.329c-.089.042-.089.124,0,.164a.355.355,0,0,1,0,.657c-.089.042-.089.124,0,.164a.357.357,0,0,1,0,.659c-.089.04-.089.122,0,.164a.355.355,0,0,1,0,.657c-.089.042-.089.124,0,.167a.357.357,0,0,1,.22.328.367.367,0,0,1-.22.329c-.089.041-.089.121,0,.163a.355.355,0,0,1,0,.657c-.089.042-.089.123,0,.164a.365.365,0,0,1,.22.329.388.388,0,0,1-.776,0,.367.367,0,0,1,.218-.329c.089-.042.089-.122,0-.164a.357.357,0,0,1,0-.657c.089-.042.089-.122,0-.163a.369.369,0,0,1-.218-.329.359.359,0,0,1,.218-.328c.089-.043.089-.125,0-.167a.357.357,0,0,1,0-.657c.089-.042.089-.124,0-.164a.358.358,0,0,1,0-.659c.089-.04.089-.122,0-.164a.357.357,0,0,1,0-.657c.089-.04.089-.122,0-.164a.364.364,0,0,1-.218-.329.36.36,0,0,1,.218-.328c.089-.042.089-.124,0-.164a.358.358,0,0,1,0-.659c.089-.042.089-.124,0-.164a.357.357,0,0,1,0-.657c.089-.042.089-.124,0-.167a.361.361,0,0,1-.218-.328.369.369,0,0,1,.218-.329c.089-.042.089-.121,0-.163a.357.357,0,0,1,0-.657c.089-.042.089-.124,0-.164a.358.358,0,0,1,0-.659c.089-.04.089-.122,0-.164a.357.357,0,0,1,0-.657c.089-.042.089-.122,0-.164a.357.357,0,0,1,0-.657c.089-.041.089-.124,0-.166a.357.357,0,0,1,0-.657c.089-.042.089-.124,0-.164a.358.358,0,0,1,0-.659c.089-.04.089-.122,0-.164a.357.357,0,0,1,0-.657c.089-.04.089-.122,0-.165a.356.356,0,0,1,0-.656c.089-.043.089-.124,0-.164a.358.358,0,0,1,0-.659c.089-.04.089-.122,0-.165a.361.361,0,0,1-.218-.328.368.368,0,0,1,.218-.331c.089-.04.089-.122,0-.164a.361.361,0,0,1-.218-.328.367.367,0,0,1,.218-.329" transform="translate(-140.919 -56.25)" fill="#ffb700"/>
      <path id="Caminho_155" data-name="Caminho 155" d="M287.262,132.266c-3.958,0-5.845.764-5.845.82,0,2.649,2.537,4.933,5.845,4.933s5.846-2.284,5.846-4.933c0-.057-1.886-.82-5.846-.82m-6.392.82c0,3.025,2.862,5.48,6.392,5.48s6.394-2.455,6.394-5.48c0-.756-2.862-1.37-6.394-1.37s-6.392.615-6.392,1.37" transform="translate(-168.238 -78.897)" fill="#171716" fill-rule="evenodd"/>
      <path id="Caminho_156" data-name="Caminho 156" d="M288.079,133.085c-3.958,0-5.845.764-5.845.821,0,2.648,2.537,4.932,5.845,4.932s5.845-2.285,5.845-4.932c0-.058-1.886-.821-5.845-.821" transform="translate(-169.055 -79.717)" fill="#ffb700"/>
      <path id="Caminho_157" data-name="Caminho 157" d="M293.656,133.086c0-.756-2.862-1.37-6.394-1.37s-6.392.615-6.392,1.37h.547c0-.057,1.888-.82,5.846-.82s5.845.764,5.845.82Z" transform="translate(-168.238 -78.897)" fill="#171716"/>
      <path id="Caminho_158" data-name="Caminho 158" d="M288.079,134.727c3.96,0,5.845-.765,5.845-.821s-1.886-.824-5.845-.824-5.845.765-5.845.824,1.888.821,5.845.821" transform="translate(-169.055 -79.715)" fill="#ffb700"/>
      <path id="Caminho_159" data-name="Caminho 159" d="M280.87,135.133c0,.757,2.862,1.371,6.392,1.371s6.394-.615,6.394-1.371h-.549c0,.058-1.886.821-5.846.821s-5.845-.764-5.845-.821Z" transform="translate(-168.238 -80.944)" fill="#171716"/>
      <path id="Caminho_160" data-name="Caminho 160" d="M296.574,94.082a.64.64,0,0,0,.019-.438.7.7,0,0,0-.858-.41.638.638,0,0,0-.436.806.661.661,0,0,0,.288.345.606.606,0,0,0-.016.436.641.641,0,0,0,.284.345.617.617,0,0,0-.014.438.648.648,0,0,0,.286.346.609.609,0,0,0-.019.436.658.658,0,0,0,.286.345.612.612,0,0,0-.016.436.646.646,0,0,0,.288.344.614.614,0,0,0-.019.438.635.635,0,0,0,.288.343.6.6,0,0,0-.014.438.623.623,0,0,0,.284.345.58.58,0,0,0-.016.436.633.633,0,0,0,.284.345.607.607,0,0,0-.015.438.627.627,0,0,0,.286.344.618.618,0,0,0-.018.438.661.661,0,0,0,.288.346.6.6,0,0,0-.016.436.638.638,0,0,0,.284.345.593.593,0,0,0-.014.437.626.626,0,0,0,.284.346.608.608,0,0,0-.016.436.663.663,0,0,0,.288.346.6.6,0,0,0-.019.436.649.649,0,0,0,.288.345.607.607,0,0,0-.017.438.638.638,0,0,0,.284.343.618.618,0,0,0-.014.438.642.642,0,0,0,.284.345.6.6,0,0,0-.016.435.639.639,0,0,0,.286.345.619.619,0,0,0-.016.438.657.657,0,0,0,.288.345.6.6,0,0,0-.016.436.634.634,0,0,0,.286.345.587.587,0,0,0-.014.436.615.615,0,0,0,.282.345.6.6,0,0,0-.014.438.643.643,0,0,0,.284.346.6.6,0,0,0-.014.436.686.686,0,0,0,.853.41.63.63,0,0,0,.434-.806.621.621,0,0,0-.284-.343.6.6,0,0,0,.014-.438.642.642,0,0,0-.284-.345.6.6,0,0,0,.016-.436.636.636,0,0,0-.288-.345.585.585,0,0,0,.019-.438.655.655,0,0,0-.286-.344.592.592,0,0,0,.014-.437.636.636,0,0,0-.284-.344.6.6,0,0,0,.014-.436.627.627,0,0,0-.284-.345.591.591,0,0,0,.016-.438.651.651,0,0,0-.284-.344.625.625,0,0,0,.014-.437.639.639,0,0,0-.286-.344.626.626,0,0,0,.016-.438.638.638,0,0,0-.288-.345.617.617,0,0,0,.019-.438.642.642,0,0,0-.286-.343.61.61,0,0,0,.016-.438.658.658,0,0,0-.286-.345.605.605,0,0,0,.016-.438.641.641,0,0,0-.288-.342.585.585,0,0,0,.018-.438.631.631,0,0,0-.288-.343.583.583,0,0,0,.016-.438.635.635,0,0,0-.284-.345.587.587,0,0,0,.015-.436.644.644,0,0,0-.284-.345.6.6,0,0,0,.016-.438.653.653,0,0,0-.286-.342.593.593,0,0,0,.016-.438.646.646,0,0,0-.285-.345.6.6,0,0,0,.014-.436.629.629,0,0,0-.284-.345.6.6,0,0,0,.014-.438.642.642,0,0,0-.281-.344.607.607,0,0,0,.014-.438.656.656,0,0,0-.286-.345.612.612,0,0,0,.016-.436.646.646,0,0,0-.286-.345" transform="translate(-176.863 -55.828)" fill="#171716"/>
      <path id="Caminho_161" data-name="Caminho 161" d="M296.7,94.671c-.1-.012-.125-.091-.056-.155a.348.348,0,0,0,.1-.377.4.4,0,0,0-.491-.233.361.361,0,0,0-.247.459.386.386,0,0,0,.317.251c.1.01.124.091.054.156a.354.354,0,0,0-.1.376.393.393,0,0,0,.316.249c.1.012.128.09.054.155a.355.355,0,0,0-.1.377.39.39,0,0,0,.316.251c.1.012.125.088.053.155a.349.349,0,0,0-.1.375.382.382,0,0,0,.316.251c.1.012.124.091.053.155a.35.35,0,0,0-.1.377.38.38,0,0,0,.314.248c.1.013.126.09.058.156a.356.356,0,0,0-.105.377.4.4,0,0,0,.316.25c.1.013.13.089.056.156a.342.342,0,0,0-.1.374.383.383,0,0,0,.312.251c.1.012.129.091.055.155a.347.347,0,0,0-.1.377.384.384,0,0,0,.315.249c.1.012.125.091.053.156a.355.355,0,0,0-.1.377.391.391,0,0,0,.315.251c.1.012.127.088.055.155a.352.352,0,0,0-.1.375.387.387,0,0,0,.315.249c.1.014.125.089.055.156a.342.342,0,0,0-.1.377.375.375,0,0,0,.31.248c.1.012.13.09.057.156a.35.35,0,0,0-.1.377.382.382,0,0,0,.316.251c.1.012.126.088.051.156a.358.358,0,0,0-.1.374.381.381,0,0,0,.317.251c.1.012.123.089.053.156a.353.353,0,0,0-.1.376.387.387,0,0,0,.314.249c.1.012.125.09.056.155a.355.355,0,0,0-.1.377.4.4,0,0,0,.316.251c.1.012.128.089.053.153a.359.359,0,0,0-.1.377.385.385,0,0,0,.317.25c.1.013.125.091.051.156a.361.361,0,0,0-.1.377.383.383,0,0,0,.317.248c.1.013.124.09.053.156a.351.351,0,0,0-.1.376.388.388,0,0,0,.314.251c.1.012.126.089.056.153a.359.359,0,0,0-.1.377.389.389,0,0,0,.317.251c.1.012.13.091.055.155a.342.342,0,0,0-.1.377.382.382,0,0,0,.315.249c.1.012.128.091.053.156a.347.347,0,0,0-.1.377.385.385,0,0,0,.315.249c.1.014.126.089.051.156a.354.354,0,0,0-.1.375.392.392,0,0,0,.487.235.36.36,0,0,0,.249-.461.38.38,0,0,0-.314-.249c-.1-.012-.128-.093-.054-.156a.356.356,0,0,0,.1-.376.374.374,0,0,0-.316-.249c-.1-.014-.124-.092-.051-.158a.351.351,0,0,0,.1-.377.382.382,0,0,0-.314-.249c-.1-.012-.125-.09-.054-.155a.359.359,0,0,0,.1-.377.384.384,0,0,0-.316-.249c-.1-.012-.125-.09-.053-.157a.351.351,0,0,0,.1-.375.382.382,0,0,0-.316-.249c-.1-.012-.125-.093-.053-.157a.352.352,0,0,0,.1-.377.379.379,0,0,0-.317-.248c-.1-.013-.123-.09-.049-.156a.362.362,0,0,0,.1-.377.384.384,0,0,0-.317-.248c-.1-.012-.125-.091-.053-.156a.359.359,0,0,0,.1-.376.379.379,0,0,0-.317-.249c-.1-.012-.126-.093-.056-.157a.35.35,0,0,0,.1-.377.394.394,0,0,0-.317-.249c-.1-.012-.128-.09-.055-.155a.344.344,0,0,0,.1-.377.38.38,0,0,0-.312-.249c-.1-.012-.128-.091-.054-.155a.354.354,0,0,0,.1-.377.378.378,0,0,0-.314-.25c-.1-.013-.126-.09-.054-.156a.349.349,0,0,0,.1-.377.375.375,0,0,0-.314-.248c-.1-.012-.125-.091-.056-.156a.35.35,0,0,0,.1-.376.38.38,0,0,0-.316-.249c-.1-.012-.125-.093-.053-.156a.349.349,0,0,0,.1-.376.381.381,0,0,0-.312-.251c-.1-.012-.13-.091-.056-.156a.349.349,0,0,0,.1-.377.383.383,0,0,0-.317-.249c-.1-.012-.124-.09-.049-.155a.36.36,0,0,0,.1-.377.387.387,0,0,0-.317-.249c-.1-.012-.126-.091-.053-.155a.36.36,0,0,0,.1-.377.386.386,0,0,0-.317-.25c-.1-.013-.128-.091-.054-.156a.352.352,0,0,0,.1-.377.384.384,0,0,0-.314-.248c-.1-.014-.128-.09-.054-.156a.354.354,0,0,0,.1-.377.383.383,0,0,0-.317-.249c-.1-.012-.123-.091-.049-.156a.36.36,0,0,0,.1-.376.386.386,0,0,0-.316-.251c-.1-.012-.125-.09-.056-.155a.355.355,0,0,0,.1-.377.384.384,0,0,0-.316-.249" transform="translate(-177.297 -56.238)" fill="#ffb700"/>
      <path id="Caminho_162" data-name="Caminho 162" d="M287.559,94.386a.648.648,0,0,0,.286-.345.632.632,0,0,0-.436-.8.687.687,0,0,0-.855.41.612.612,0,0,0,.018.436.665.665,0,0,0-.287.345.618.618,0,0,0,.016.436.646.646,0,0,0-.284.346.605.605,0,0,0,.014.438.637.637,0,0,0-.284.344.581.581,0,0,0,.016.436.659.659,0,0,0-.288.346.609.609,0,0,0,.018.436.657.657,0,0,0-.288.345.617.617,0,0,0,.016.438.635.635,0,0,0-.284.345.592.592,0,0,0,.014.436.63.63,0,0,0-.284.345.6.6,0,0,0,.016.436.619.619,0,0,0-.284.344.594.594,0,0,0,.014.438.631.631,0,0,0-.286.345.6.6,0,0,0,.015.436.656.656,0,0,0-.286.345.586.586,0,0,0,.018.436.645.645,0,0,0-.286.346.607.607,0,0,0,.016.438.625.625,0,0,0-.286.345.6.6,0,0,0,.016.436.655.655,0,0,0-.288.345.6.6,0,0,0,.019.438.645.645,0,0,0-.288.346.6.6,0,0,0,.016.436.638.638,0,0,0-.284.344.61.61,0,0,0,.014.436.654.654,0,0,0-.284.346.591.591,0,0,0,.016.436.667.667,0,0,0-.288.345.628.628,0,0,0,.018.438.644.644,0,0,0-.286.345.6.6,0,0,0,.014.436.644.644,0,0,0-.284.345.577.577,0,0,0,.016.435.652.652,0,0,0-.286.345.6.6,0,0,0,.016.438.651.651,0,0,0-.288.345.637.637,0,0,0,.436.807.691.691,0,0,0,.855-.413.588.588,0,0,0-.019-.436.64.64,0,0,0,.288-.345.6.6,0,0,0-.016-.435.652.652,0,0,0,.286-.347.6.6,0,0,0-.016-.436.643.643,0,0,0,.286-.345.612.612,0,0,0-.018-.436.665.665,0,0,0,.29-.345.611.611,0,0,0-.021-.438.639.639,0,0,0,.288-.343.616.616,0,0,0-.014-.438.659.659,0,0,0,.284-.346.6.6,0,0,0-.016-.436.636.636,0,0,0,.284-.345.616.616,0,0,0-.014-.438.646.646,0,0,0,.287-.344.623.623,0,0,0-.018-.436.663.663,0,0,0,.286-.345.6.6,0,0,0-.014-.436.672.672,0,0,0,.284-.345.605.605,0,0,0-.016-.438.629.629,0,0,0,.284-.344.593.593,0,0,0-.015-.438.644.644,0,0,0,.286-.345.6.6,0,0,0-.016-.436.64.64,0,0,0,.286-.344.6.6,0,0,0-.018-.437.625.625,0,0,0,.285-.344.594.594,0,0,0-.014-.438.633.633,0,0,0,.284-.345.582.582,0,0,0-.016-.436.646.646,0,0,0,.288-.345.6.6,0,0,0-.018-.438.65.65,0,0,0,.29-.343.615.615,0,0,0-.02-.438.646.646,0,0,0,.288-.345.6.6,0,0,0-.016-.436.648.648,0,0,0,.286-.344.627.627,0,0,0-.016-.438.636.636,0,0,0,.284-.343.615.615,0,0,0-.014-.438" transform="translate(-168.235 -55.829)" fill="#171716"/>
      <path id="Caminho_163" data-name="Caminho 163" d="M287.632,94.769c-.07-.065-.043-.143.056-.155a.385.385,0,0,0,.316-.249.364.364,0,0,0-.251-.461.4.4,0,0,0-.49.235.358.358,0,0,0,.1.377c.07.065.045.141-.054.153a.387.387,0,0,0-.316.251.355.355,0,0,0,.1.374c.074.068.047.144-.051.158a.382.382,0,0,0-.317.251.352.352,0,0,0,.1.374c.075.066.049.144-.055.156a.386.386,0,0,0-.313.249.349.349,0,0,0,.1.378c.072.066.045.142-.057.156a.384.384,0,0,0-.313.249.341.341,0,0,0,.1.374c.07.068.043.143-.055.158a.378.378,0,0,0-.315.25.355.355,0,0,0,.1.375c.074.065.045.143-.054.156a.378.378,0,0,0-.312.25.347.347,0,0,0,.1.377c.072.065.045.141-.053.153a.386.386,0,0,0-.314.251.343.343,0,0,0,.1.377c.074.065.043.141-.056.155a.387.387,0,0,0-.314.249.352.352,0,0,0,.1.376c.068.066.043.144-.055.156a.387.387,0,0,0-.317.251.36.36,0,0,0,.1.377c.072.066.045.14-.051.154a.384.384,0,0,0-.317.25.347.347,0,0,0,.1.377c.07.065.045.141-.054.156a.383.383,0,0,0-.317.248.351.351,0,0,0,.1.377c.075.065.046.143-.053.156a.4.4,0,0,0-.316.251.36.36,0,0,0,.1.377c.072.065.045.143-.053.155a.385.385,0,0,0-.314.249.35.35,0,0,0,.1.377c.07.066.046.144-.053.156a.379.379,0,0,0-.316.251.355.355,0,0,0,.1.374c.073.066.047.144-.052.156a.385.385,0,0,0-.316.251.356.356,0,0,0,.1.376c.073.066.045.141-.054.154a.389.389,0,0,0-.314.25.348.348,0,0,0,.1.377c.072.066.045.143-.055.156a.381.381,0,0,0-.315.248.347.347,0,0,0,.1.377c.07.065.045.143-.056.155a.384.384,0,0,0-.315.251.356.356,0,0,0,.1.375c.075.067.049.143-.053.155a.391.391,0,0,0-.315.251.352.352,0,0,0,.1.377c.072.065.045.143-.056.155a.377.377,0,0,0-.312.251.339.339,0,0,0,.1.374c.072.066.043.143-.055.156a.389.389,0,0,0-.315.25.36.36,0,0,0,.249.46.4.4,0,0,0,.49-.233.353.353,0,0,0-.1-.377c-.07-.065-.045-.143.053-.156a.378.378,0,0,0,.316-.249.348.348,0,0,0-.1-.377c-.072-.065-.047-.143.054-.157a.376.376,0,0,0,.314-.249.348.348,0,0,0-.1-.374c-.074-.066-.043-.146.056-.158a.378.378,0,0,0,.31-.249.34.34,0,0,0-.1-.376c-.07-.066-.043-.144.056-.156a.381.381,0,0,0,.315-.249.344.344,0,0,0-.1-.376c-.072-.066-.043-.146.056-.158a.372.372,0,0,0,.315-.249.358.358,0,0,0-.1-.376c-.075-.064-.046-.143.053-.156a.375.375,0,0,0,.315-.248.348.348,0,0,0-.1-.377c-.07-.065-.046-.143.053-.156a.382.382,0,0,0,.317-.248.343.343,0,0,0-.1-.377c-.072-.065-.043-.143.055-.158a.38.38,0,0,0,.316-.247.352.352,0,0,0-.1-.377c-.07-.067-.043-.145.055-.157a.385.385,0,0,0,.317-.249.36.36,0,0,0-.1-.377c-.074-.066-.049-.144.051-.156a.379.379,0,0,0,.314-.251.346.346,0,0,0-.1-.374c-.072-.066-.047-.145.052-.158a.379.379,0,0,0,.316-.245.36.36,0,0,0-.1-.379c-.074-.065-.045-.143.053-.156a.39.39,0,0,0,.317-.248.358.358,0,0,0-.1-.377c-.072-.065-.047-.143.053-.156a.385.385,0,0,0,.316-.251.348.348,0,0,0-.1-.375c-.07-.065-.045-.145.053-.157a.382.382,0,0,0,.317-.247.359.359,0,0,0-.1-.378c-.074-.066-.048-.144.051-.156a.378.378,0,0,0,.317-.249.352.352,0,0,0-.1-.376c-.074-.066-.045-.144.055-.156a.379.379,0,0,0,.311-.251.34.34,0,0,0-.1-.374c-.074-.066-.045-.143.055-.158a.378.378,0,0,0,.317-.248.352.352,0,0,0-.1-.377c-.07-.066-.043-.143.056-.156a.378.378,0,0,0,.314-.248.356.356,0,0,0-.1-.377c-.074-.065-.045-.143.053-.155a.384.384,0,0,0,.315-.251.347.347,0,0,0-.1-.375c-.072-.065-.043-.145.056-.158a.377.377,0,0,0,.312-.249.339.339,0,0,0-.1-.377" transform="translate(-168.67 -56.238)" fill="#ffb700"/>
      <path id="Caminho_164" data-name="Caminho 164" d="M296.315,94.274a.617.617,0,0,0,.16-.41.679.679,0,0,0-1.356,0,.612.612,0,0,1,0,.821.629.629,0,0,0,.158.413.621.621,0,0,0-.158.411.612.612,0,0,1,0,.82.631.631,0,0,0,.158.413.617.617,0,0,0-.158.41.613.613,0,0,1,0,.821.621.621,0,0,0,.158.41.615.615,0,0,0,0,.823.627.627,0,0,0-.158.41.617.617,0,0,0,.158.41,1.734,1.734,0,0,1-.158,1.234.618.618,0,0,0,.158.41.615.615,0,0,0,0,.823.618.618,0,0,0-.158.41.613.613,0,0,1,0,.822.615.615,0,0,1,0,.823.612.612,0,0,1,0,.82.631.631,0,0,0,.158.413.612.612,0,0,0,0,.82,1.728,1.728,0,0,1-.158,1.231.621.621,0,0,0,.158.411.637.637,0,0,0-.158.412.621.621,0,0,0,.158.411,1.735,1.735,0,0,1-.158,1.234.613.613,0,0,1,0,.821.679.679,0,0,0,1.356,0,.606.606,0,0,1,0-.821.606.606,0,0,1,0-.822.619.619,0,0,0-.16-.412.613.613,0,0,0,.16-.411.629.629,0,0,0-.16-.412.614.614,0,0,0,.16-.411.6.6,0,0,1,0-.82.606.606,0,0,1,0-.821.612.612,0,0,0-.16-.41,1.708,1.708,0,0,1,.16-1.234.608.608,0,0,1,0-.823.606.606,0,0,1,0-.822.61.61,0,0,0-.16-.41.608.608,0,0,0,0-.823.61.61,0,0,0,.16-.41.606.606,0,0,1,0-.821.622.622,0,0,0-.16-.413.609.609,0,0,0,.16-.41.606.606,0,0,1,0-.821.626.626,0,0,0-.16-.412.613.613,0,0,0,.16-.41.606.606,0,0,1,0-.821.609.609,0,0,0-.16-.41,1.708,1.708,0,0,1,.16-1.234.613.613,0,0,0-.16-.411.609.609,0,0,0,0-.824" transform="translate(-176.773 -55.84)" fill="#171716"/>
      <path id="Caminho_165" data-name="Caminho 165" d="M296.4,94.766c-.089-.042-.089-.122,0-.163a.363.363,0,0,0,.22-.329.378.378,0,0,0-.391-.366.374.374,0,0,0-.384.366.362.362,0,0,0,.22.329c.089.041.089.121,0,.163a.365.365,0,0,0-.22.329.359.359,0,0,0,.22.328c.089.042.089.124,0,.164a.366.366,0,0,0-.22.331.359.359,0,0,0,.22.328c.089.043.089.125,0,.165a.357.357,0,0,0,0,.659c.089.04.089.121,0,.164a.354.354,0,0,0,0,.656c.089.043.089.125,0,.165a.355.355,0,0,0,0,.657c.089.042.089.124,0,.164a.357.357,0,0,0,0,.659c.089.04.089.122,0,.164a.355.355,0,0,0,0,.657c.089.042.089.125,0,.166a.355.355,0,0,0,0,.657c.089.042.089.122,0,.164a.355.355,0,0,0,0,.657c.089.042.089.124,0,.164a.357.357,0,0,0,0,.659c.089.04.089.122,0,.164a.356.356,0,0,0,0,.657c.089.042.089.121,0,.163a.367.367,0,0,0-.22.329.359.359,0,0,0,.22.328c.089.042.089.125,0,.167a.355.355,0,0,0,0,.657c.089.04.089.122,0,.164a.357.357,0,0,0,0,.659c.089.04.089.122,0,.164a.358.358,0,0,0-.22.328.362.362,0,0,0,.22.329c.089.042.089.124,0,.164a.355.355,0,0,0,0,.657c.089.042.089.124,0,.164a.357.357,0,0,0,0,.659c.089.04.089.122,0,.164a.355.355,0,0,0,0,.657c.089.042.089.124,0,.167a.357.357,0,0,0-.22.328.367.367,0,0,0,.22.329c.089.041.089.121,0,.163a.355.355,0,0,0,0,.657c.089.042.089.123,0,.164a.365.365,0,0,0-.22.329.375.375,0,0,0,.384.366.379.379,0,0,0,.391-.366.365.365,0,0,0-.22-.329c-.089-.042-.089-.122,0-.164a.355.355,0,0,0,0-.657c-.089-.042-.089-.122,0-.163a.367.367,0,0,0,.22-.329.357.357,0,0,0-.22-.328c-.089-.043-.089-.125,0-.167a.355.355,0,0,0,0-.657c-.089-.042-.089-.124,0-.164a.357.357,0,0,0,0-.659c-.089-.04-.089-.122,0-.164a.355.355,0,0,0,0-.657c-.089-.04-.089-.122,0-.164a.363.363,0,0,0,.22-.329.358.358,0,0,0-.22-.328c-.089-.042-.089-.124,0-.164a.357.357,0,0,0,0-.659c-.089-.042-.089-.124,0-.164a.355.355,0,0,0,0-.657c-.089-.042-.089-.124,0-.167a.36.36,0,0,0,.22-.328.367.367,0,0,0-.22-.329c-.089-.042-.089-.121,0-.163a.355.355,0,0,0,0-.657c-.089-.042-.089-.124,0-.164a.357.357,0,0,0,0-.659c-.089-.04-.089-.122,0-.164a.355.355,0,0,0,0-.657c-.089-.042-.089-.122,0-.164a.355.355,0,0,0,0-.657c-.089-.041-.089-.124,0-.166a.355.355,0,0,0,0-.657c-.089-.042-.089-.124,0-.164a.357.357,0,0,0,0-.659c-.089-.04-.089-.122,0-.164a.355.355,0,0,0,0-.657c-.089-.04-.089-.122,0-.165a.354.354,0,0,0,0-.656c-.089-.043-.089-.124,0-.164a.357.357,0,0,0,0-.659c-.089-.04-.089-.122,0-.165a.36.36,0,0,0,.22-.328.366.366,0,0,0-.22-.331c-.089-.04-.089-.122,0-.164a.36.36,0,0,0,.22-.328.366.366,0,0,0-.22-.329" transform="translate(-177.208 -56.25)" fill="#ffb700"/>
      <path id="Caminho_166" data-name="Caminho 166" d="M225.74,133.461a1.7,1.7,0,0,0-.642,1.257,13.618,13.618,0,0,1-1.513-.3.573.573,0,0,0-.049-.283.651.651,0,0,0,.288-.344,15.588,15.588,0,0,1,1.916-.329" transform="translate(-133.896 -79.942)" fill="#8f730a"/>
      <path id="Caminho_167" data-name="Caminho 167" d="M244.059,134.721a1.7,1.7,0,0,0-.641-1.256,15.934,15.934,0,0,1,1.916.328.638.638,0,0,0,.286.344.612.612,0,0,0-.048.284,14.3,14.3,0,0,1-1.513.3" transform="translate(-145.805 -79.945)" fill="#8f730a"/>
      <path id="Caminho_168" data-name="Caminho 168" d="M286.33,133.461a1.69,1.69,0,0,0-.644,1.257,13.569,13.569,0,0,1-1.513-.3.605.605,0,0,0-.047-.283.66.66,0,0,0,.286-.344,15.631,15.631,0,0,1,1.918-.329" transform="translate(-170.189 -79.942)" fill="#8f730a"/>
      <path id="Caminho_169" data-name="Caminho 169" d="M304.645,134.721a1.7,1.7,0,0,0-.642-1.256,16.068,16.068,0,0,1,1.918.328.634.634,0,0,0,.283.344.611.611,0,0,0-.046.284,14.36,14.36,0,0,1-1.515.3" transform="translate(-182.095 -79.945)" fill="#8f730a"/>
    </g>
  </g>
  <line id="Linha_6" data-name="Linha 6" x2="139.084" transform="translate(3.636 158.001)" fill="none" stroke="#171716" stroke-width="0.112"/>
  <g id="Grupo_12" data-name="Grupo 12">
    <g id="Grupo_11" data-name="Grupo 11" clip-path="url(#clip-path-4)">
      <path id="Caminho_170" data-name="Caminho 170" d="M143.954,416.519h1.11a4.4,4.4,0,0,1,2.825.814,2.519,2.519,0,0,1,1.016,2.048,2.494,2.494,0,0,1-1.538,2.278,3.469,3.469,0,0,1,1.838,1.135,3.057,3.057,0,0,1-.547,4.284,4.892,4.892,0,0,1-3.109.93h-3.216Zm-.015,5.642-.712,5.107h2.222a4.162,4.162,0,0,0,2.617-.711,2.241,2.241,0,0,0,.905-1.847,2.3,2.3,0,0,0-.837-1.834,3.2,3.2,0,0,0-2.157-.715Zm.683-4.9-.58,4.161h1.179a3.458,3.458,0,0,0,2.078-.535,1.777,1.777,0,0,0,.726-1.521,1.859,1.859,0,0,0-.713-1.542,3.091,3.091,0,0,0-1.965-.563Z" transform="translate(-85.257 -249.491)" fill="#2e2e2d"/>
      <path id="Caminho_171" data-name="Caminho 171" d="M165.922,426.081l-.292,2.077.036.028a10.29,10.29,0,0,1,1.435-1.764,1.807,1.807,0,0,1,1.221-.49,1.92,1.92,0,0,1,.749.148v.748a1.824,1.824,0,0,0-.781-.205q-.782,0-1.777,1.188a8.616,8.616,0,0,0-1.023,1.336l-.63,4.5h-.748l1.061-7.566Z" transform="translate(-98.302 -255.13)" fill="#2e2e2d"/>
      <path id="Caminho_172" data-name="Caminho 172" d="M182.519,426.08l-1.067,7.566h-.739l.126-.9a3.92,3.92,0,0,1-2.6,1.043,2.4,2.4,0,0,1-1.892-.855,3.178,3.178,0,0,1-.748-2.171,4.573,4.573,0,0,1,1.481-3.4,5.367,5.367,0,0,1,3.893-1.431,7.268,7.268,0,0,1,1.547.148m-1.558,5.8.747-5.295a3.928,3.928,0,0,0-.929-.1,4.312,4.312,0,0,0-3.1,1.246,4.161,4.161,0,0,0-1.295,3.129,2.5,2.5,0,0,0,.538,1.682,1.787,1.787,0,0,0,1.427.629,3.846,3.846,0,0,0,2.609-1.293" transform="translate(-105.181 -255.129)" fill="#2e2e2d"/>
      <path id="Caminho_173" data-name="Caminho 173" d="M201.252,426.3v.321L195,433.21h5.287l-.1.658H193.6v-.3l6.333-6.6h-4.951l.1-.658Z" transform="translate(-115.967 -255.351)" fill="#2e2e2d"/>
      <path id="Caminho_174" data-name="Caminho 174" d="M215.386,421.425l-1.06,7.566h-.748l1.069-7.566Zm.437-3.265-.189,1.25h-.74l.189-1.25Z" transform="translate(-127.931 -250.474)" fill="#2e2e2d"/>
      <path id="Caminho_175" data-name="Caminho 175" d="M223.279,416.52l-1.612,11.489h-.747l1.62-11.489Z" transform="translate(-132.329 -249.491)" fill="#2e2e2d"/>
      <path id="Caminho_176" data-name="Caminho 176" d="M242.186,416.519h1.11a4.4,4.4,0,0,1,2.825.814,2.519,2.519,0,0,1,1.016,2.048,2.494,2.494,0,0,1-1.538,2.278,3.468,3.468,0,0,1,1.838,1.135,3.057,3.057,0,0,1-.547,4.284,4.892,4.892,0,0,1-3.109.93h-3.216Zm-.015,5.642-.712,5.107h2.222a4.162,4.162,0,0,0,2.617-.711,2.242,2.242,0,0,0,.905-1.847,2.3,2.3,0,0,0-.837-1.834,3.2,3.2,0,0,0-2.157-.715Zm.683-4.9-.58,4.161h1.179a3.459,3.459,0,0,0,2.078-.535,1.777,1.777,0,0,0,.725-1.521,1.859,1.859,0,0,0-.713-1.542,3.091,3.091,0,0,0-1.965-.563Z" transform="translate(-144.097 -249.491)" fill="#2e2e2d"/>
      <path id="Caminho_177" data-name="Caminho 177" d="M264.154,426.081l-.292,2.077.036.028a10.292,10.292,0,0,1,1.435-1.764,1.807,1.807,0,0,1,1.221-.49,1.923,1.923,0,0,1,.749.148v.748a1.827,1.827,0,0,0-.782-.205q-.782,0-1.777,1.188a8.61,8.61,0,0,0-1.023,1.336l-.631,4.5h-.747l1.061-7.566Z" transform="translate(-157.142 -255.13)" fill="#2e2e2d"/>
      <path id="Caminho_178" data-name="Caminho 178" d="M280.751,426.08l-1.067,7.566h-.74l.126-.9a3.92,3.92,0,0,1-2.6,1.043,2.4,2.4,0,0,1-1.892-.855,3.177,3.177,0,0,1-.748-2.171,4.574,4.574,0,0,1,1.481-3.4,5.367,5.367,0,0,1,3.893-1.431,7.267,7.267,0,0,1,1.547.148m-1.558,5.8.747-5.295a3.928,3.928,0,0,0-.929-.1,4.312,4.312,0,0,0-3.1,1.246,4.161,4.161,0,0,0-1.295,3.129,2.5,2.5,0,0,0,.539,1.682,1.785,1.785,0,0,0,1.427.629,3.846,3.846,0,0,0,2.609-1.293" transform="translate(-164.021 -255.129)" fill="#2e2e2d"/>
      <path id="Caminho_179" data-name="Caminho 179" d="M295.523,426.081l-.177,1.263.047.02a4.133,4.133,0,0,1,2.877-1.43,1.737,1.737,0,0,1,1.365.608,2.235,2.235,0,0,1,.534,1.529,2.984,2.984,0,0,1-.025.387l-.723,5.19h-.747l.707-5.082a3.3,3.3,0,0,0,.033-.452,1.564,1.564,0,0,0-.359-1.1,1.274,1.274,0,0,0-.986-.391,4.311,4.311,0,0,0-2.856,1.669l-.751,5.354h-.739l1.061-7.566Z" transform="translate(-175.937 -255.13)" fill="#2e2e2d"/>
      <path id="Caminho_180" data-name="Caminho 180" d="M318.88,426.081l-.115.814a5.466,5.466,0,0,0-1.431-.222A3.317,3.317,0,0,0,314.7,427.8a3.991,3.991,0,0,0-.982,2.71,2.572,2.572,0,0,0,.695,1.879,2.463,2.463,0,0,0,1.846.711,5.638,5.638,0,0,0,2.155-.617l-.115.789a5.046,5.046,0,0,1-2.229.518,2.978,2.978,0,0,1-2.278-.929,3.412,3.412,0,0,1-.872-2.434,4.541,4.541,0,0,1,1.221-3.154,4.191,4.191,0,0,1,3.261-1.345,7.7,7.7,0,0,1,1.48.148" transform="translate(-187.435 -255.13)" fill="#2e2e2d"/>
      <path id="Caminho_181" data-name="Caminho 181" d="M331.315,416.519,330.542,422l.047.018a4.319,4.319,0,0,1,2.979-1.721,1.867,1.867,0,0,1,1.4.547,1.961,1.961,0,0,1,.531,1.427,3.112,3.112,0,0,1-.024.387l-.759,5.353h-.747l.724-5.271a2.485,2.485,0,0,0,.033-.387,1.369,1.369,0,0,0-.354-1.012,1.25,1.25,0,0,0-.922-.353q-1.383,0-3.055,2.038l-.7,4.985h-.739l1.62-11.489Z" transform="translate(-197.041 -249.491)" fill="#2e2e2d"/>
    </g>
  </g>
</svg>
