<svg id="Grupo_15" data-name="Grupo 15" xmlns="http://www.w3.org/2000/svg" xmlns:xlink="http://www.w3.org/1999/xlink" width="225.696" height="63.923" viewBox="0 0 225.696 63.923">
  <defs>
    <clipPath id="clip-path">
      <rect id="Ret창ngulo_41" data-name="Ret창ngulo 41" width="225.696" height="63.923" fill="none"/>
    </clipPath>
  </defs>
  <g id="Grupo_14" data-name="Grupo 14" clip-path="url(#clip-path)">
    <path id="Caminho_182" data-name="Caminho 182" d="M528.229,44.9h-1.191a10.034,10.034,0,0,1-1.319,4.977,7.45,7.45,0,0,1-5.488,3.488q-1.361.128-1.957.127H499.557l12.593-12.422,6.126-6.3a38.844,38.844,0,0,0,4.552-5.53,31.385,31.385,0,0,0,2.722-4.935,22.163,22.163,0,0,0,1.361-4.169,16.469,16.469,0,0,0,.382-3.233,19.53,19.53,0,0,0-.978-6.126,13.933,13.933,0,0,0-3.148-5.275,15.847,15.847,0,0,0-5.573-3.7A21.391,21.391,0,0,0,509.426.4,22.273,22.273,0,0,0,501.3,1.723a17.831,17.831,0,0,0-5.445,3.19,12.543,12.543,0,0,0-3.063,3.956,8.664,8.664,0,0,0-.978,3.531,4.5,4.5,0,0,0,.6,2.51,3.5,3.5,0,0,0,1.4,1.276,5.045,5.045,0,0,0,1.7.468q.894.086,1.489.085a6.858,6.858,0,0,0,3.4-.809A3.066,3.066,0,0,0,501.854,13a9.315,9.315,0,0,0-.085-.936q-.086-.68-.17-1.446t-.17-1.446a8.891,8.891,0,0,1-.085-.935,7.661,7.661,0,0,1,.638-3.4,5.284,5.284,0,0,1,1.659-2A5.947,5.947,0,0,1,505.9,1.85,11.94,11.94,0,0,1,508.32,1.6a6.309,6.309,0,0,1,3.957,1.149,7.023,7.023,0,0,1,2.254,3.233,19.386,19.386,0,0,1,1.021,4.935q.256,2.851.256,6.338a49.606,49.606,0,0,1-1.277,12.082,32.185,32.185,0,0,1-4.254,9.614,62.7,62.7,0,0,1-7.955,9.657q-4.977,5.063-12.379,12.124l-.511.425v1.191h38.8Z" transform="translate(-362.883 -0.3)" fill="#277d51"/>
    <path id="Caminho_183" data-name="Caminho 183" d="M669.57,60.195a11.116,11.116,0,0,1-2.765-5.4,45.937,45.937,0,0,1-1.149-9.444q-.213-5.785-.212-13.783,0-8.082.212-13.825a45.751,45.751,0,0,1,1.149-9.4,11.128,11.128,0,0,1,2.765-5.4,7.164,7.164,0,0,1,5.147-1.744,7.656,7.656,0,0,1,5.148,1.574,9.991,9.991,0,0,1,2.765,5.19,45.362,45.362,0,0,1,1.149,9.4q.211,5.787.213,14.208,0,7.862-.206,13.582L695.462,30c-.014-.845-.037-1.838-.07-2.986a47.6,47.6,0,0,0-.681-6.466,47.108,47.108,0,0,0-1.829-7.189,22.039,22.039,0,0,0-3.531-6.594,18.311,18.311,0,0,0-5.87-4.85A18.369,18.369,0,0,0,674.718,0a16.915,16.915,0,0,0-8.04,1.787,18.337,18.337,0,0,0-5.658,4.594,23.846,23.846,0,0,0-3.7,6.339,41.735,41.735,0,0,0-2.128,7.062,56.042,56.042,0,0,0-.978,6.637q-.255,3.106-.255,5.147,0,1.617.085,4.594a46.308,46.308,0,0,0,.681,6.466,45.823,45.823,0,0,0,1.829,7.1,22.7,22.7,0,0,0,3.531,6.594,17.589,17.589,0,0,0,5.871,4.85,15.777,15.777,0,0,0,4.343,1.47l1.018-1.321a5.744,5.744,0,0,1-1.745-1.128" transform="translate(-484.868)" fill="#277d51"/>
    <path id="Caminho_184" data-name="Caminho 184" d="M21.857,1.054l.178,9.651H20.562q-2.07-8.851-7.5-8.851A3.649,3.649,0,0,0,9.521,4.294q-1.07,2.45-1.07,9.932,0,13.923.775,16.737a3.382,3.382,0,0,0,3.52,2.819q5.629,0,8.265-9.132h1.5L22.036,35.3H20.562c-.457-.711-1.016-1.493-1.683-2.371a9.724,9.724,0,0,1-6.66,2.678q-4.768,0-8.49-4.663T0,18.186Q0,10.164,3.714,5.155q3.722-4.992,9.211-5a8.49,8.49,0,0,1,5.954,2.52,13.68,13.68,0,0,0,1.683-1.625ZM40.186,35.143H24.509V33.448H28.37V2.318H24.509V.641h16.15c3.745,0,6.42.826,8.033,2.459a7.83,7.83,0,0,1,2.419,5.646,7.981,7.981,0,0,1-1.861,5.032c-1.241,1.572-3.411,2.591-6.5,3.073v.106Q52.22,18.34,52.228,25.6a8.7,8.7,0,0,1-3.047,6.937q-3.047,2.608-8.994,2.608M35.821,2.318V16.131h1.752q3.361,0,4.5-1.054T43.21,9.159q0-4.07-.923-5.453c-.613-.931-1.969-1.387-4.055-1.387ZM38.093,17.8H35.821V33.448h1.752q4.094,0,5.234-1.493c.767-1,1.148-3.3,1.148-6.92q0-4.333-1.349-5.778c-.9-.966-2.4-1.458-4.512-1.458M67.168.641,72.852,20.61,78.574.641H90.569V2.318H86.661v31.13h3.908v1.695H75.209V33.448h4V4.171L70.417,35.143H69.355L60.423,3.785V29.918a5.586,5.586,0,0,0,.481,2.845c.318.457,1.194.685,2.636.685H64.6v1.695H54.43V33.448H56.29c1.178,0,1.9-.228,2.155-.676a6.049,6.049,0,0,0,.388-2.7V2.318h-4.4V.641Zm42.574,24.851h-9.591l-1.295,3.53a10.611,10.611,0,0,0-.744,3.056c0,.913.752,1.37,2.272,1.37h1.675v1.695H92.251V33.448h.884a3.185,3.185,0,0,0,2.365-.676A10.485,10.485,0,0,0,97,29.663L107.649,0h1.341l11.173,33.448h3.163v1.695h-15V33.448h4.063Zm-8.932-1.774h8.319l-4-11.96Z" transform="translate(0)" fill="#277d51"/>
    <path id="Caminho_185" data-name="Caminho 185" d="M4.994,178.051l.88.223a2.974,2.974,0,0,1-.995,1.652,2.744,2.744,0,0,1-1.757.568,3.159,3.159,0,0,1-1.747-.436,2.737,2.737,0,0,1-1.024-1.267A4.541,4.541,0,0,1,0,177.009a3.912,3.912,0,0,1,.4-1.81,2.718,2.718,0,0,1,1.129-1.174,3.288,3.288,0,0,1,1.611-.4,2.719,2.719,0,0,1,1.677.508,2.631,2.631,0,0,1,.947,1.428l-.865.2a2.054,2.054,0,0,0-.671-1.057,1.78,1.78,0,0,0-1.106-.331,2.147,2.147,0,0,0-1.279.367,1.933,1.933,0,0,0-.722.987A3.949,3.949,0,0,0,.907,177a4.074,4.074,0,0,0,.246,1.481,1.849,1.849,0,0,0,.769.945,2.155,2.155,0,0,0,1.129.312,1.9,1.9,0,0,0,1.25-.425,2.182,2.182,0,0,0,.693-1.265m1.982,2.33v-6.644h4.8v.784H7.854v2.034H11.53v.78H7.854V179.6h4.08v.784Zm6.163,0v-6.644h.9l3.49,5.217v-5.217h.843v6.644h-.9l-3.49-5.221v5.221Zm8.4,0v-5.86H19.353v-.784h5.266v.784h-2.2v5.86Zm3.993,0v-6.644h2.946a3.919,3.919,0,0,1,1.35.179,1.484,1.484,0,0,1,.739.631,1.894,1.894,0,0,1,.275,1,1.663,1.663,0,0,1-.458,1.191,2.319,2.319,0,0,1-1.414.617,2.215,2.215,0,0,1,.531.331,4.6,4.6,0,0,1,.73.883l1.156,1.808H30.284L29.406,179c-.257-.4-.469-.7-.636-.915a1.952,1.952,0,0,0-.446-.444,1.33,1.33,0,0,0-.4-.178,2.792,2.792,0,0,0-.49-.031H26.414v2.95Zm.879-3.711H28.3a2.821,2.821,0,0,0,.942-.125,1,1,0,0,0,.517-.4,1.077,1.077,0,0,0,.176-.6.988.988,0,0,0-.342-.775,1.6,1.6,0,0,0-1.081-.3h-2.1Zm5.543.475a3.607,3.607,0,0,1,.888-2.59,3.024,3.024,0,0,1,2.294-.936,3.186,3.186,0,0,1,1.658.44,2.878,2.878,0,0,1,1.126,1.227,3.975,3.975,0,0,1,.387,1.782,3.906,3.906,0,0,1-.407,1.809,2.792,2.792,0,0,1-1.156,1.208,3.3,3.3,0,0,1-1.613.41,3.13,3.13,0,0,1-1.677-.453,2.908,2.908,0,0,1-1.12-1.237,3.747,3.747,0,0,1-.381-1.659m.907.014a2.663,2.663,0,0,0,.645,1.892,2.254,2.254,0,0,0,3.255-.006,2.828,2.828,0,0,0,.642-1.982,3.408,3.408,0,0,0-.275-1.416,2.112,2.112,0,0,0-.8-.939,2.182,2.182,0,0,0-1.185-.333,2.245,2.245,0,0,0-1.607.642,2.863,2.863,0,0,0-.673,2.141m9.123,3.222v-6.644H44.48a3.1,3.1,0,0,1,1.221.2,1.561,1.561,0,0,1,.721.622,1.637,1.637,0,0,1,.261.877,1.5,1.5,0,0,1-.232.8,1.65,1.65,0,0,1-.7.608,1.735,1.735,0,0,1,.927.6A1.616,1.616,0,0,1,47,178.455a1.941,1.941,0,0,1-.2.868,1.683,1.683,0,0,1-.487.619,2.03,2.03,0,0,1-.727.328,4.406,4.406,0,0,1-1.072.111Zm.88-3.852H44.3a3.235,3.235,0,0,0,.839-.077.928.928,0,0,0,.5-.331.959.959,0,0,0,.17-.58,1.073,1.073,0,0,0-.158-.582.809.809,0,0,0-.454-.345,3.8,3.8,0,0,0-1.012-.093H42.866Zm0,3.068H44.52a3.955,3.955,0,0,0,.6-.031,1.436,1.436,0,0,0,.508-.183.962.962,0,0,0,.336-.368,1.17,1.17,0,0,0,.132-.56,1.112,1.112,0,0,0-.19-.647,1.007,1.007,0,0,0-.529-.385,3.321,3.321,0,0,0-.971-.11H42.866Zm5.362.784v-6.644h2.946a3.919,3.919,0,0,1,1.35.179,1.483,1.483,0,0,1,.739.631,1.892,1.892,0,0,1,.275,1,1.663,1.663,0,0,1-.458,1.191,2.317,2.317,0,0,1-1.414.617,2.215,2.215,0,0,1,.531.331,4.6,4.6,0,0,1,.73.883l1.156,1.808H52.978L52.1,179c-.257-.4-.469-.7-.636-.915a1.952,1.952,0,0,0-.446-.444,1.33,1.33,0,0,0-.4-.178,2.789,2.789,0,0,0-.49-.031h-1.02v2.95Zm.879-3.711H51a2.82,2.82,0,0,0,.942-.125,1,1,0,0,0,.517-.4,1.077,1.077,0,0,0,.176-.6.987.987,0,0,0-.342-.775,1.6,1.6,0,0,0-1.081-.3h-2.1Zm5.081,3.711,2.553-6.644h.947l2.72,6.644h-1l-.775-2.013H55.851l-.729,2.013Zm1.917-2.729h2.254l-.695-1.839c-.21-.559-.368-1.018-.47-1.378a8.472,8.472,0,0,1-.359,1.27Zm4.706.594.829-.073a1.823,1.823,0,0,0,.274.818,1.5,1.5,0,0,0,.668.517,2.531,2.531,0,0,0,1.02.2,2.455,2.455,0,0,0,.888-.148,1.244,1.244,0,0,0,.574-.41.955.955,0,0,0,.189-.569.859.859,0,0,0-.183-.546,1.335,1.335,0,0,0-.6-.391,11.774,11.774,0,0,0-1.183-.325,6.082,6.082,0,0,1-1.282-.415,1.8,1.8,0,0,1-.71-.619,1.522,1.522,0,0,1-.232-.828,1.685,1.685,0,0,1,.285-.939,1.769,1.769,0,0,1,.834-.665,3.184,3.184,0,0,1,1.219-.226,3.321,3.321,0,0,1,1.3.238,1.874,1.874,0,0,1,.868.7,2.027,2.027,0,0,1,.327,1.047l-.843.064a1.364,1.364,0,0,0-.461-.952,1.786,1.786,0,0,0-1.157-.322,1.863,1.863,0,0,0-1.164.292.879.879,0,0,0-.365.7.754.754,0,0,0,.259.589,3.48,3.48,0,0,0,1.326.473,8.855,8.855,0,0,1,1.471.424,2.029,2.029,0,0,1,.857.677,1.655,1.655,0,0,1,.276.945,1.8,1.8,0,0,1-.3,1,2.013,2.013,0,0,1-.873.73,3.045,3.045,0,0,1-1.279.26,3.8,3.8,0,0,1-1.512-.263,2.114,2.114,0,0,1-.958-.791,2.235,2.235,0,0,1-.364-1.194m6.64-4.51h.879v6.644H67.45Zm2.392,6.644v-6.644h.88v5.86h3.272v.784Zm5.218,0v-6.644h4.8v.784H75.938v2.034h3.676v.78H75.938V179.6h4.079v.784Zm6.323-6.644h.879v6.644h-.879Zm2.443,6.644v-6.644h2.946a3.921,3.921,0,0,1,1.35.179,1.485,1.485,0,0,1,.739.631,1.894,1.894,0,0,1,.275,1,1.664,1.664,0,0,1-.458,1.191,2.319,2.319,0,0,1-1.414.617,2.213,2.213,0,0,1,.531.331,4.6,4.6,0,0,1,.73.883l1.156,1.808H88.574L87.7,179c-.257-.4-.469-.7-.636-.915a1.946,1.946,0,0,0-.446-.444,1.329,1.329,0,0,0-.4-.178,2.794,2.794,0,0,0-.49-.031H84.7v2.95Zm.879-3.711h1.89a2.819,2.819,0,0,0,.942-.125,1,1,0,0,0,.517-.4,1.077,1.077,0,0,0,.177-.6.988.988,0,0,0-.342-.775,1.6,1.6,0,0,0-1.081-.3H84.7Zm5.543.475a3.606,3.606,0,0,1,.888-2.59,3.024,3.024,0,0,1,2.294-.936,3.187,3.187,0,0,1,1.658.44,2.881,2.881,0,0,1,1.126,1.227,3.975,3.975,0,0,1,.387,1.782,3.906,3.906,0,0,1-.407,1.809,2.792,2.792,0,0,1-1.156,1.208,3.3,3.3,0,0,1-1.614.41,3.13,3.13,0,0,1-1.677-.453,2.909,2.909,0,0,1-1.12-1.237,3.744,3.744,0,0,1-.381-1.659m.907.014a2.663,2.663,0,0,0,.645,1.892,2.254,2.254,0,0,0,3.255-.006,2.828,2.828,0,0,0,.642-1.982,3.408,3.408,0,0,0-.275-1.416,2.113,2.113,0,0,0-.8-.939,2.183,2.183,0,0,0-1.185-.333,2.245,2.245,0,0,0-1.607.642,2.863,2.863,0,0,0-.673,2.141m9.16,3.222v-6.644H102.6a5.557,5.557,0,0,1,1.183.1,2.246,2.246,0,0,1,.975.475,2.709,2.709,0,0,1,.786,1.135,4.433,4.433,0,0,1,.261,1.58,4.6,4.6,0,0,1-.178,1.341,3.223,3.223,0,0,1-.453.969,2.37,2.37,0,0,1-.605.6,2.456,2.456,0,0,1-.792.334,4.547,4.547,0,0,1-1.067.113Zm.879-.784h1.419a3.439,3.439,0,0,0,1.032-.122,1.478,1.478,0,0,0,.6-.345,2.084,2.084,0,0,0,.487-.84,4.125,4.125,0,0,0,.175-1.281,3.1,3.1,0,0,0-.342-1.6,1.721,1.721,0,0,0-.832-.75,3.42,3.42,0,0,0-1.137-.136h-1.4Zm5.843.784v-6.644h4.8v.784h-3.925v2.034h3.676v.78h-3.676V179.6h4.079v.784ZM.195,190.751v-6.644H2.2l1.205,4.533L4.6,184.106H6.612v6.644H5.366v-5.23l-1.319,5.23H2.755L1.44,185.52v5.23Zm7.75,0v-6.644h4.926v1.124H9.287V186.7h3.335v1.119H9.287v1.808H13v1.12Zm6.187-6.644h2.452a4.771,4.771,0,0,1,1.264.127,2.2,2.2,0,0,1,1,.613,2.893,2.893,0,0,1,.636,1.075,4.941,4.941,0,0,1,.217,1.572,4.362,4.362,0,0,1-.2,1.414,2.9,2.9,0,0,1-.712,1.173,2.339,2.339,0,0,1-.942.531,4.03,4.03,0,0,1-1.188.141H14.132Zm1.341,1.124v4.4h1a3.619,3.619,0,0,0,.812-.063,1.24,1.24,0,0,0,.541-.275,1.418,1.418,0,0,0,.351-.642,4.372,4.372,0,0,0,.136-1.218,4,4,0,0,0-.136-1.182,1.528,1.528,0,0,0-.381-.644,1.276,1.276,0,0,0-.622-.312,5.963,5.963,0,0,0-1.1-.064Zm5.325-1.124h1.341v6.644H20.8Zm8.612,6.644H27.95l-.58-1.51H24.714l-.548,1.51H22.743l2.588-6.644h1.418Zm-2.471-2.628-.916-2.466-.9,2.466Zm7.433.185,1.3.412a2.921,2.921,0,0,1-.995,1.617,3.131,3.131,0,0,1-3.94-.376,3.464,3.464,0,0,1-.852-2.472,3.637,3.637,0,0,1,.857-2.577,2.938,2.938,0,0,1,2.253-.917,2.76,2.76,0,0,1,1.98.721,2.611,2.611,0,0,1,.681,1.224l-1.329.317a1.372,1.372,0,0,0-1.4-1.115,1.51,1.51,0,0,0-1.2.531,2.6,2.6,0,0,0-.459,1.717,2.777,2.777,0,0,0,.453,1.794,1.467,1.467,0,0,0,1.177.535,1.339,1.339,0,0,0,.92-.34,1.982,1.982,0,0,0,.554-1.069m-2.82,4.27v-.535a8.384,8.384,0,0,0,.857.049,1,1,0,0,0,.6-.145.331.331,0,0,0,.148-.28.336.336,0,0,0-.139-.268.692.692,0,0,0-.436-.113,2.058,2.058,0,0,0-.592.09l.118-.449a2.337,2.337,0,0,1,.761-.122,1.308,1.308,0,0,1,.862.249.769.769,0,0,1,.294.608.778.778,0,0,1-.327.648,2.028,2.028,0,0,1-1.259.34,4.054,4.054,0,0,1-.885-.073m11.264-1.827h-1.46l-.58-1.51H38.12l-.548,1.51H36.149l2.588-6.644h1.419Zm-2.471-2.628-.916-2.466-.9,2.466Zm-1.954-4.383h-.58c0-.07,0-.124,0-.164a1.059,1.059,0,0,1,.231-.732.767.767,0,0,1,.594-.255,1.2,1.2,0,0,1,.3.034,3.454,3.454,0,0,1,.5.195,1.526,1.526,0,0,0,.565.161.343.343,0,0,0,.243-.091.485.485,0,0,0,.124-.3h.589a1.363,1.363,0,0,1-.229.874.724.724,0,0,1-.577.263,1.43,1.43,0,0,1-.3-.033c-.068-.017-.243-.079-.52-.186a1.987,1.987,0,0,0-.608-.158.292.292,0,0,0-.226.088.458.458,0,0,0-.087.306m4.864,3.73a4.221,4.221,0,0,1,.3-1.7,3.158,3.158,0,0,1,.619-.911,2.605,2.605,0,0,1,.859-.6,3.629,3.629,0,0,1,1.432-.263,3.116,3.116,0,0,1,2.35.911,4.068,4.068,0,0,1,.006,5.051,3.1,3.1,0,0,1-2.337.908,3.132,3.132,0,0,1-2.358-.9,3.434,3.434,0,0,1-.874-2.491m1.382-.045a2.5,2.5,0,0,0,.521,1.711,1.7,1.7,0,0,0,1.324.582,1.682,1.682,0,0,0,1.317-.579,2.541,2.541,0,0,0,.514-1.732,2.51,2.51,0,0,0-.5-1.7,1.857,1.857,0,0,0-2.669.008,2.513,2.513,0,0,0-.508,1.716m8.69,3.326v-6.644h4.926v1.124H54.668V186.7H58v1.119H54.668v1.808H58.38v1.12Zm14.416,0h-1.46l-.58-1.51H63.047l-.548,1.51H61.076l2.588-6.644h1.419Zm-2.47-2.628-.916-2.466-.9,2.466Zm3.185,2.628v-6.644h2.825a4.838,4.838,0,0,1,1.547.179,1.529,1.529,0,0,1,.774.636,1.918,1.918,0,0,1,.289,1.047,1.78,1.78,0,0,1-.439,1.236,2.112,2.112,0,0,1-1.315.613,3.139,3.139,0,0,1,.72.559,7.607,7.607,0,0,1,.763,1.078l.812,1.3h-1.6l-.97-1.446a9.466,9.466,0,0,0-.707-.976,1.043,1.043,0,0,0-.4-.277,2.232,2.232,0,0,0-.676-.074H69.8v2.774Zm1.343-3.835h.992a5.187,5.187,0,0,0,1.206-.08.728.728,0,0,0,.376-.282.871.871,0,0,0,.136-.5.8.8,0,0,0-.179-.541.826.826,0,0,0-.506-.261q-.163-.021-.979-.022H69.8Zm5.361-2.809h2.656a7.514,7.514,0,0,1,1.177.066,1.712,1.712,0,0,1,.693.274A1.7,1.7,0,0,1,80.2,185a1.5,1.5,0,0,1,.2.776,1.572,1.572,0,0,1-.933,1.442,1.749,1.749,0,0,1,.933.6,1.6,1.6,0,0,1,.327,1,1.973,1.973,0,0,1-.21.882,1.779,1.779,0,0,1-.576.684,1.917,1.917,0,0,1-.9.316q-.334.035-1.618.045H75.162Zm1.343,1.106v1.536h.879q.785,0,.975-.023a.884.884,0,0,0,.541-.237.7.7,0,0,0,.2-.52.731.731,0,0,0-.169-.5.77.77,0,0,0-.506-.232q-.2-.023-1.146-.023Zm0,2.643v1.776h1.241a6.048,6.048,0,0,0,.921-.04.834.834,0,0,0,.487-.265.819.819,0,0,0,.189-.565.873.873,0,0,0-.145-.508.825.825,0,0,0-.419-.3,4.565,4.565,0,0,0-1.19-.094Zm5.316-3.748h1.341v6.644H81.82Zm4.115,6.644v-5.52H83.964v-1.124h5.28v1.124H87.278v5.52Zm4.178,0v-6.644h2.825a4.839,4.839,0,0,1,1.547.179,1.529,1.529,0,0,1,.773.636,1.916,1.916,0,0,1,.289,1.047,1.78,1.78,0,0,1-.439,1.236,2.113,2.113,0,0,1-1.315.613,3.137,3.137,0,0,1,.719.559,7.586,7.586,0,0,1,.763,1.078l.812,1.3h-1.6l-.97-1.446a9.479,9.479,0,0,0-.707-.976,1.044,1.044,0,0,0-.4-.277,2.23,2.23,0,0,0-.676-.074h-.271v2.774Zm1.343-3.835h.992a5.183,5.183,0,0,0,1.206-.08.727.727,0,0,0,.376-.282.87.87,0,0,0,.136-.5.8.8,0,0,0-.179-.541.826.826,0,0,0-.506-.261q-.163-.021-.979-.022H91.457Zm11.349,3.835h-1.46l-.58-1.51H98.109l-.548,1.51H96.138l2.588-6.644h1.419Zm-2.471-2.628-.916-2.466-.9,2.466Zm6.273.185v-1.12H109.5v2.647a3.648,3.648,0,0,1-1.222.719,4.47,4.47,0,0,1-1.62.31,3.648,3.648,0,0,1-1.818-.436,2.783,2.783,0,0,1-1.165-1.252,4.041,4.041,0,0,1-.39-1.77,3.839,3.839,0,0,1,.435-1.846,2.929,2.929,0,0,1,1.275-1.236,3.423,3.423,0,0,1,1.59-.331,3.176,3.176,0,0,1,1.932.518,2.348,2.348,0,0,1,.9,1.436l-1.332.249a1.415,1.415,0,0,0-.529-.774,1.594,1.594,0,0,0-.967-.283,1.82,1.82,0,0,0-1.4.557,2.35,2.35,0,0,0-.518,1.655,2.6,2.6,0,0,0,.526,1.775,1.751,1.751,0,0,0,1.377.591,2.325,2.325,0,0,0,.846-.165,2.922,2.922,0,0,0,.727-.4v-.843Zm4.129,2.443v-6.644h4.926v1.124h-3.584V186.7h3.335v1.119h-3.335v1.808h3.711v1.12Zm6.172,0v-6.644h2.008l1.205,4.533,1.191-4.533h2.013v6.644h-1.245v-5.23l-1.32,5.23H119.47l-1.315-5.23v5.23Z" transform="translate(0 -128.727)" fill="#277d51"/>
    <path id="Caminho_186" data-name="Caminho 186" d="M738.128,194.372v5.093h-1.92v-1.058a3.078,3.078,0,0,1-2.733,1.172c-1.985,0-3.238-1.09-3.238-2.6,0-1.448.976-2.587,3.612-2.587h2.246v-.13c0-1.188-.716-1.888-2.164-1.888a4.3,4.3,0,0,0-2.636.863l-.8-1.481a6.107,6.107,0,0,1,3.677-1.074c2.506,0,3.954,1.188,3.954,3.694m-2.034,2.376v-1.009h-2.1c-1.383,0-1.757.521-1.757,1.156,0,.732.618,1.2,1.659,1.2a2.215,2.215,0,0,0,2.2-1.351" transform="translate(-541.423 -141.376)" fill="#277d51"/>
    <path id="Caminho_187" data-name="Caminho 187" d="M776.862,194.486v4.979h-2.034v-4.719c0-1.546-.765-2.294-2.067-2.294a2.308,2.308,0,0,0-2.425,2.62v4.394H768.3v-8.689h1.936V191.9a3.778,3.778,0,0,1,2.994-1.22c2.083,0,3.628,1.188,3.628,3.807" transform="translate(-569.647 -141.376)" fill="#277d51"/>
    <path id="Caminho_188" data-name="Caminho 188" d="M806.433,195.121a4.632,4.632,0,1,1,4.621,4.458,4.373,4.373,0,0,1-4.621-4.458m7.209,0a2.583,2.583,0,1,0-2.588,2.717,2.531,2.531,0,0,0,2.588-2.717" transform="translate(-597.918 -141.376)" fill="#277d51"/>
    <path id="Caminho_189" data-name="Caminho 189" d="M843.429,198.6l.781-1.546a5.85,5.85,0,0,0,3.027.863c1.285,0,1.823-.358,1.823-.96,0-1.66-5.37-.1-5.37-3.564,0-1.643,1.481-2.717,3.824-2.717a6.919,6.919,0,0,1,3.255.748l-.781,1.546a4.755,4.755,0,0,0-2.49-.651c-1.236,0-1.822.407-1.822.976,0,1.757,5.37.2,5.37,3.6,0,1.627-1.5,2.685-3.938,2.685a6.9,6.9,0,0,1-3.678-.976" transform="translate(-625.349 -141.376)" fill="#277d51"/>
    <rect id="Ret창ngulo_40" data-name="Ret창ngulo 40" width="123.183" height="0.775" transform="translate(0.144 40.24)" fill="#277d51"/>
  </g>
</svg>
